<svg width="25" height="24" viewBox="0 0 25 24" fill="none" xmlns="http://www.w3.org/2000/svg">
<path d="M22.2155 17.647L14.4745 3.664C14.071 2.9355 13.333 2.5 12.5 2.5C11.667 2.5 10.929 2.9355 10.5255 3.664L2.78455 17.647C2.39305 18.3545 2.40405 19.192 2.81505 19.8885C3.22505 20.5845 3.95205 21 4.75955 21H20.241C21.048 21 21.775 20.5845 22.1855 19.8885C22.5955 19.1925 22.607 18.3545 22.2155 17.647ZM11.75 8.75C11.75 8.3355 12.086 8 12.5 8C12.914 8 13.25 8.3355 13.25 8.75V13.75C13.25 14.1645 12.914 14.5 12.5 14.5C12.086 14.5 11.75 14.1645 11.75 13.75V8.75ZM12.5 18C11.9475 18 11.5 17.5525 11.5 17C11.5 16.4475 11.9475 16 12.5 16C13.0525 16 13.5 16.4475 13.5 17C13.5 17.5525 13.0525 18 12.5 18Z" fill="#D9A900"/>
</svg>
