<svg width="284" height="104" viewBox="0 0 284 104" fill="none" xmlns="http://www.w3.org/2000/svg">
<path d="M8 55.1533C8 38.0325 21.8792 24.1533 39 24.1533H236C253.121 24.1533 267 38.0325 267 55.1533C267 72.2741 253.121 86.1533 236 86.1533H39C21.8792 86.1533 8 72.2741 8 55.1533Z" fill="url(#paint0_radial_952_10987)"/>
<path d="M83.5881 48.1079H86.6278V58.2499C86.6278 59.1874 86.4171 60.0018 85.9957 60.6931C85.5791 61.3844 84.9991 61.9171 84.2557 62.2911C83.5123 62.6652 82.6482 62.8522 81.6634 62.8522C80.7874 62.8522 79.992 62.6983 79.277 62.3905C78.5668 62.078 78.0033 61.6046 77.5866 60.9701C77.17 60.3309 76.964 59.5283 76.9688 58.5624H80.0298C80.0393 58.9459 80.1174 59.275 80.2642 59.5496C80.4157 59.8195 80.6217 60.0278 80.8821 60.1746C81.1473 60.3167 81.4598 60.3877 81.8196 60.3877C82.1984 60.3877 82.518 60.3072 82.7784 60.1462C83.0436 59.9805 83.2448 59.739 83.3821 59.4218C83.5194 59.1046 83.5881 58.7139 83.5881 58.2499V48.1079ZM94.0426 62.8664C92.9394 62.8664 91.9853 62.632 91.1804 62.1633C90.3802 61.6898 89.7623 61.0316 89.3267 60.1888C88.8911 59.3413 88.6733 58.3588 88.6733 57.2414C88.6733 56.1145 88.8911 55.1296 89.3267 54.2868C89.7623 53.4393 90.3802 52.7812 91.1804 52.3124C91.9853 51.8389 92.9394 51.6022 94.0426 51.6022C95.1458 51.6022 96.0975 51.8389 96.8977 52.3124C97.7027 52.7812 98.3229 53.4393 98.7585 54.2868C99.1941 55.1296 99.4119 56.1145 99.4119 57.2414C99.4119 58.3588 99.1941 59.3413 98.7585 60.1888C98.3229 61.0316 97.7027 61.6898 96.8977 62.1633C96.0975 62.632 95.1458 62.8664 94.0426 62.8664ZM94.0568 60.5226C94.5587 60.5226 94.9777 60.3806 95.3139 60.0965C95.6501 59.8077 95.9034 59.4147 96.0739 58.9175C96.2491 58.4204 96.3366 57.8546 96.3366 57.2201C96.3366 56.5856 96.2491 56.0198 96.0739 55.5226C95.9034 55.0255 95.6501 54.6325 95.3139 54.3437C94.9777 54.0548 94.5587 53.9104 94.0568 53.9104C93.5502 53.9104 93.1241 54.0548 92.7784 54.3437C92.4375 54.6325 92.1795 55.0255 92.0043 55.5226C91.8338 56.0198 91.7486 56.5856 91.7486 57.2201C91.7486 57.8546 91.8338 58.4204 92.0043 58.9175C92.1795 59.4147 92.4375 59.8077 92.7784 60.0965C93.1241 60.3806 93.5502 60.5226 94.0568 60.5226ZM101.379 62.6533V51.7442H104.405V62.6533H101.379ZM102.899 50.338C102.449 50.338 102.063 50.1888 101.741 49.8905C101.424 49.5875 101.266 49.2253 101.266 48.8039C101.266 48.3872 101.424 48.0297 101.741 47.7314C102.063 47.4284 102.449 47.2769 102.899 47.2769C103.349 47.2769 103.732 47.4284 104.05 47.7314C104.372 48.0297 104.533 48.3872 104.533 48.8039C104.533 49.2253 104.372 49.5875 104.05 49.8905C103.732 50.1888 103.349 50.338 102.899 50.338ZM109.854 56.3465V62.6533H106.828V51.7442H109.712V53.6689H109.84C110.081 53.0345 110.486 52.5326 111.054 52.1633C111.623 51.7892 112.311 51.6022 113.121 51.6022C113.879 51.6022 114.539 51.7679 115.103 52.0993C115.666 52.4308 116.104 52.9043 116.417 53.5198C116.729 54.1306 116.885 54.8598 116.885 55.7073V62.6533H113.86V56.2471C113.864 55.5795 113.694 55.0586 113.348 54.6846C113.003 54.3058 112.527 54.1164 111.921 54.1164C111.514 54.1164 111.154 54.204 110.841 54.3792C110.533 54.5544 110.292 54.81 110.117 55.1462C109.946 55.4777 109.859 55.8778 109.854 56.3465ZM129.112 62.6533H123.956V48.1079H129.154C130.618 48.1079 131.877 48.3991 132.933 48.9814C133.989 49.5591 134.801 50.3901 135.369 51.4743C135.942 52.5586 136.228 53.856 136.228 55.3664C136.228 56.8815 135.942 58.1836 135.369 59.2726C134.801 60.3617 133.984 61.1974 132.919 61.7797C131.858 62.3621 130.589 62.6533 129.112 62.6533ZM127.031 60.0184H128.984C129.893 60.0184 130.658 59.8574 131.278 59.5354C131.903 59.2087 132.372 58.7045 132.684 58.0226C133.002 57.3361 133.16 56.4507 133.16 55.3664C133.16 54.2916 133.002 53.4133 132.684 52.7314C132.372 52.0496 131.905 51.5477 131.285 51.2258C130.665 50.9038 129.9 50.7428 128.991 50.7428H127.031V60.0184ZM138.45 62.6533V51.7442H141.475V62.6533H138.45ZM139.969 50.338C139.52 50.338 139.134 50.1888 138.812 49.8905C138.495 49.5875 138.336 49.2253 138.336 48.8039C138.336 48.3872 138.495 48.0297 138.812 47.7314C139.134 47.4284 139.52 47.2769 139.969 47.2769C140.419 47.2769 140.803 47.4284 141.12 47.7314C141.442 48.0297 141.603 48.3872 141.603 48.8039C141.603 49.2253 141.442 49.5875 141.12 49.8905C140.803 50.1888 140.419 50.338 139.969 50.338ZM152.975 54.855L150.206 55.0255C150.158 54.7887 150.056 54.5757 149.9 54.3863C149.744 54.1921 149.538 54.0383 149.282 53.9246C149.031 53.8063 148.731 53.7471 148.38 53.7471C147.912 53.7471 147.516 53.8465 147.194 54.0454C146.872 54.2395 146.711 54.4999 146.711 54.8266C146.711 55.087 146.815 55.3072 147.024 55.4871C147.232 55.6671 147.59 55.8115 148.096 55.9204L150.071 56.3181C151.131 56.5359 151.922 56.8863 152.443 57.3692C152.964 57.8522 153.224 58.4867 153.224 59.2726C153.224 59.9876 153.013 60.615 152.592 61.1547C152.175 61.6945 151.602 62.1159 150.873 62.4189C150.149 62.7172 149.313 62.8664 148.366 62.8664C146.922 62.8664 145.771 62.5657 144.914 61.9644C144.062 61.3583 143.563 60.5345 143.416 59.4928L146.392 59.3366C146.482 59.7769 146.699 60.1131 147.045 60.3451C147.391 60.5724 147.833 60.686 148.373 60.686C148.904 60.686 149.33 60.5842 149.652 60.3806C149.978 60.1723 150.144 59.9047 150.149 59.578C150.144 59.3034 150.028 59.0785 149.801 58.9033C149.574 58.7234 149.223 58.5861 148.75 58.4914L146.86 58.115C145.795 57.9019 145.002 57.5326 144.481 57.007C143.965 56.4814 143.707 55.8115 143.707 54.9971C143.707 54.2963 143.896 53.6926 144.275 53.186C144.659 52.6794 145.196 52.2887 145.887 52.0141C146.583 51.7395 147.398 51.6022 148.331 51.6022C149.708 51.6022 150.793 51.8934 151.583 52.4758C152.379 53.0581 152.843 53.8512 152.975 54.855ZM160.058 62.8664C158.941 62.8664 157.98 62.6296 157.175 62.1562C156.375 61.6779 155.759 61.0151 155.328 60.1675C154.902 59.32 154.689 58.3446 154.689 57.2414C154.689 56.124 154.904 55.1439 155.335 54.301C155.771 53.4535 156.389 52.793 157.189 52.3195C157.989 51.8413 158.941 51.6022 160.044 51.6022C160.996 51.6022 161.829 51.775 162.544 52.1206C163.259 52.4663 163.825 52.9516 164.241 53.5766C164.658 54.2016 164.888 54.9355 164.93 55.7783H162.075C161.995 55.2338 161.782 54.7958 161.436 54.4644C161.095 54.1282 160.648 53.9601 160.094 53.9601C159.625 53.9601 159.215 54.088 158.865 54.3437C158.519 54.5946 158.25 54.9616 158.055 55.4445C157.861 55.9275 157.764 56.5122 157.764 57.1988C157.764 57.8948 157.859 58.4867 158.048 58.9743C158.242 59.462 158.515 59.8337 158.865 60.0894C159.215 60.3451 159.625 60.4729 160.094 60.4729C160.439 60.4729 160.75 60.4019 161.024 60.2599C161.304 60.1178 161.533 59.9118 161.713 59.642C161.898 59.3673 162.018 59.0383 162.075 58.6547H164.93C164.883 59.4881 164.656 60.222 164.249 60.8564C163.846 61.4862 163.29 61.9786 162.58 62.3337C161.869 62.6888 161.029 62.8664 160.058 62.8664ZM171.797 62.8664C170.693 62.8664 169.739 62.632 168.934 62.1633C168.134 61.6898 167.516 61.0316 167.081 60.1888C166.645 59.3413 166.427 58.3588 166.427 57.2414C166.427 56.1145 166.645 55.1296 167.081 54.2868C167.516 53.4393 168.134 52.7812 168.934 52.3124C169.739 51.8389 170.693 51.6022 171.797 51.6022C172.9 51.6022 173.851 51.8389 174.652 52.3124C175.457 52.7812 176.077 53.4393 176.512 54.2868C176.948 55.1296 177.166 56.1145 177.166 57.2414C177.166 58.3588 176.948 59.3413 176.512 60.1888C176.077 61.0316 175.457 61.6898 174.652 62.1633C173.851 62.632 172.9 62.8664 171.797 62.8664ZM171.811 60.5226C172.313 60.5226 172.732 60.3806 173.068 60.0965C173.404 59.8077 173.657 59.4147 173.828 58.9175C174.003 58.4204 174.091 57.8546 174.091 57.2201C174.091 56.5856 174.003 56.0198 173.828 55.5226C173.657 55.0255 173.404 54.6325 173.068 54.3437C172.732 54.0548 172.313 53.9104 171.811 53.9104C171.304 53.9104 170.878 54.0548 170.532 54.3437C170.191 54.6325 169.933 55.0255 169.758 55.5226C169.588 56.0198 169.502 56.5856 169.502 57.2201C169.502 57.8546 169.588 58.4204 169.758 58.9175C169.933 59.4147 170.191 59.8077 170.532 60.0965C170.878 60.3806 171.304 60.5226 171.811 60.5226ZM179.133 62.6533V51.7442H182.066V53.6476H182.18C182.379 52.9706 182.713 52.4592 183.181 52.1135C183.65 51.7632 184.19 51.588 184.801 51.588C184.952 51.588 185.116 51.5974 185.291 51.6164C185.466 51.6353 185.62 51.6614 185.752 51.6945V54.3792C185.61 54.3366 185.414 54.2987 185.163 54.2655C184.912 54.2324 184.682 54.2158 184.474 54.2158C184.029 54.2158 183.631 54.3129 183.281 54.507C182.935 54.6964 182.661 54.9616 182.457 55.3025C182.258 55.6434 182.159 56.0364 182.159 56.4814V62.6533H179.133ZM190.829 62.8309C190 62.8309 189.25 62.6178 188.577 62.1917C187.91 61.7608 187.379 61.1287 186.987 60.2954C186.598 59.4573 186.404 58.4298 186.404 57.213C186.404 55.963 186.605 54.9237 187.008 54.0951C187.41 53.2617 187.945 52.6391 188.613 52.2272C189.285 51.8105 190.022 51.6022 190.822 51.6022C191.433 51.6022 191.942 51.7064 192.349 51.9147C192.761 52.1183 193.092 52.374 193.343 52.6817C193.599 52.9848 193.793 53.2831 193.925 53.5766H194.018V48.1079H197.036V62.6533H194.053V60.9062H193.925C193.783 61.2092 193.582 61.5099 193.322 61.8081C193.066 62.1017 192.732 62.3456 192.32 62.5397C191.913 62.7338 191.416 62.8309 190.829 62.8309ZM191.788 60.4232C192.275 60.4232 192.687 60.2906 193.023 60.0255C193.364 59.7556 193.625 59.3792 193.805 58.8962C193.989 58.4133 194.082 57.8474 194.082 57.1988C194.082 56.5501 193.992 55.9867 193.812 55.5084C193.632 55.0302 193.371 54.6609 193.031 54.4005C192.69 54.1401 192.275 54.0099 191.788 54.0099C191.29 54.0099 190.871 54.1448 190.531 54.4147C190.19 54.6846 189.932 55.0586 189.756 55.5368C189.581 56.0151 189.494 56.569 189.494 57.1988C189.494 57.8332 189.581 58.3943 189.756 58.882C189.936 59.365 190.194 59.7438 190.531 60.0184C190.871 60.2883 191.29 60.4232 191.788 60.4232Z" fill="white"/>
<g filter="url(#filter0_d_952_10987)">
<path d="M262.321 54.9092C262.225 54.8208 262.125 54.758 262.003 54.7088C261.038 54.3201 256.186 52.5271 250.816 53.3655C250.806 53.3672 250.765 53.3758 250.756 53.3783C250.654 53.4058 250.581 53.4891 250.561 53.5874L250.431 54.225C250.422 54.2643 250.422 54.3068 250.433 54.3486C250.464 54.4625 250.563 54.5401 250.675 54.5482C250.682 54.5486 250.728 54.5463 250.745 54.5452C255.493 54.4246 258.727 55.6437 261.692 57.1514C256.884 56.1254 252.164 55.2224 244.885 57.1729C237.605 59.1235 233.971 62.266 230.318 65.558C232.132 62.7699 234.324 60.0968 238.496 57.8274C238.51 57.819 238.552 57.7989 238.557 57.7951C238.65 57.7321 238.697 57.6153 238.667 57.5014C238.656 57.4596 238.636 57.4224 238.609 57.3927L238.176 56.906C238.11 56.8307 238.006 56.7947 237.903 56.8224C237.893 56.8249 237.853 56.8379 237.844 56.8415C232.774 58.8003 229.469 62.7788 228.827 63.5983C228.746 63.7017 228.693 63.8058 228.652 63.9309C228.222 65.2861 225.724 74.1117 228.552 88.1901C228.582 88.341 228.675 88.4809 228.804 88.5651C235.044 92.6555 242.102 91.4454 243.591 91.1258C243.768 91.0874 243.915 90.9663 243.982 90.7983L244.843 88.653C244.91 88.485 244.801 88.3036 244.621 88.288C241.518 88.015 237.89 87.0671 234.315 84.6577C238.388 86.3107 244.21 87.5994 252.446 85.3925C260.682 83.1857 265.08 79.1587 267.78 75.6906C265.888 79.565 263.22 82.1987 260.669 83.9878C260.521 84.0913 260.518 84.3029 260.66 84.415L262.478 85.8422C262.621 85.9539 262.808 85.9867 262.98 85.9306C264.431 85.4613 271.147 82.9816 274.506 76.3192C274.576 76.1818 274.586 76.0145 274.536 75.8686C269.947 62.2622 263.371 55.868 262.321 54.9092Z" fill="url(#paint1_radial_952_10987)"/>
<path opacity="0.05" d="M257.559 77.3012C260.157 76.6052 261.636 73.7013 260.862 70.8151C260.089 67.929 257.356 66.1535 254.759 66.8495C252.161 67.5455 250.683 70.4494 251.456 73.3356C252.229 76.2218 254.962 77.9972 257.559 77.3012Z" fill="black"/>
<path opacity="0.05" d="M257.419 76.7786C259.728 76.16 261.036 73.5527 260.34 70.9552C259.644 68.3576 257.208 66.7534 254.899 67.3721C252.59 67.9908 251.282 70.598 251.978 73.1956C252.675 75.7931 255.11 77.3973 257.419 76.7786Z" fill="black"/>
<path d="M257.279 76.256C259.3 75.7147 260.436 73.4041 259.817 71.0951C259.199 68.7862 257.059 67.3533 255.039 67.8946C253.019 68.436 251.882 70.7466 252.501 73.0555C253.12 75.3644 255.259 76.7973 257.279 76.256Z" fill="white"/>
<path opacity="0.05" d="M243.972 80.9419C246.57 80.2459 248.048 77.342 247.275 74.4558C246.502 71.5696 243.769 69.7942 241.172 70.4902C238.574 71.1862 237.095 74.0901 237.869 76.9763C238.642 79.8624 241.375 81.6379 243.972 80.9419Z" fill="black"/>
<path opacity="0.05" d="M243.832 80.4193C246.141 79.8006 247.448 77.1934 246.752 74.5958C246.056 71.9983 243.62 70.3941 241.312 71.0128C239.003 71.6315 237.695 74.2387 238.391 76.8363C239.087 79.4338 241.523 81.038 243.832 80.4193Z" fill="black"/>
<path d="M243.692 79.8967C245.712 79.3553 246.849 77.0447 246.23 74.7358C245.611 72.4269 243.472 70.994 241.452 71.5353C239.431 72.0767 238.295 74.3873 238.914 76.6962C239.532 79.0051 241.672 80.438 243.692 79.8967Z" fill="white"/>
</g>
<g filter="url(#filter1_d_952_10987)">
<path d="M55.5788 28.1092C55.5537 27.9808 55.5108 27.8709 55.442 27.759C54.8964 26.8726 52.0595 22.5478 47.2424 20.0315C47.2327 20.0265 47.1953 20.0095 47.1862 20.0059C47.0875 19.9671 46.9794 19.9909 46.9052 20.0582L46.4214 20.4936C46.3912 20.5201 46.3661 20.5544 46.3503 20.5947C46.3071 20.7044 46.3408 20.8258 46.426 20.8988C46.4313 20.9032 46.47 20.9289 46.484 20.9379C50.3742 23.6619 52.2516 26.5645 53.7404 29.5387C50.4825 25.8564 47.2231 22.3259 40.209 19.5693C33.1948 16.8127 28.4043 17.1808 23.5105 17.6583C26.6259 16.4936 29.9772 15.6458 34.6812 16.2994C34.6979 16.3013 34.7433 16.3098 34.7502 16.3102C34.8623 16.3147 34.9696 16.2488 35.0128 16.139C35.0286 16.0987 35.0346 16.0569 35.0305 16.0169L34.9715 15.3683C34.9631 15.2685 34.9011 15.1778 34.8014 15.1386C34.7923 15.1351 34.7522 15.1217 34.7428 15.1191C29.5014 13.6824 24.4791 14.9186 23.4759 15.1963C23.3493 15.2314 23.2441 15.2831 23.1373 15.3597C21.9862 16.1943 14.7329 21.8086 8.64226 34.8125C8.577 34.952 8.56817 35.1194 8.62188 35.2637C11.2104 42.2615 17.6063 45.4819 18.9942 46.1099C19.1592 46.184 19.3492 46.1739 19.5029 46.0785L21.4704 44.8648C21.6241 44.7694 21.6441 44.5587 21.5086 44.4392C19.1747 42.3757 16.8198 39.4575 15.3761 35.3953C17.6703 39.1453 21.5874 43.6412 29.523 46.7599C37.4586 49.8786 43.3886 49.2526 47.6212 48.0677C43.797 50.0595 40.0868 50.593 36.972 50.5163C36.7913 50.5116 36.6626 50.6796 36.7102 50.8541L37.3249 53.0825C37.3736 53.2575 37.5044 53.3949 37.6762 53.4519C39.1216 53.9363 45.9974 55.9328 52.6577 52.5699C52.7953 52.5007 52.9028 52.3721 52.9499 52.2255C57.3437 38.5547 55.8536 29.5043 55.5788 28.1092Z" fill="url(#paint2_radial_952_10987)"/>
<path opacity="0.05" d="M38.4436 43.2901C40.9465 44.2737 43.8614 42.8167 44.9543 40.0358C46.0472 37.2548 44.9042 34.2031 42.4014 33.2195C39.8986 32.2359 36.9837 33.6929 35.8907 36.4738C34.7978 39.2547 35.9408 42.3065 38.4436 43.2901Z" fill="black"/>
<path opacity="0.05" d="M38.6416 42.7866C40.8663 43.6609 43.4672 42.3407 44.4508 39.8379C45.4344 37.335 44.4283 34.5973 42.2035 33.723C39.9788 32.8487 37.3779 34.1688 36.3943 36.6717C35.4107 39.1745 36.4168 41.9122 38.6416 42.7866Z" fill="black"/>
<path d="M38.8395 42.283C40.7861 43.0481 43.073 41.8647 43.9473 39.64C44.8216 37.4152 43.9523 34.9916 42.0057 34.2265C40.059 33.4615 37.7722 34.6448 36.8979 36.8696C36.0235 39.0943 36.8928 41.518 38.8395 42.283Z" fill="white"/>
<path opacity="0.05" d="M25.3518 38.145C27.8547 39.1286 30.7696 37.6716 31.8625 34.8907C32.9554 32.1098 31.8124 29.058 29.3096 28.0744C26.8068 27.0908 23.8919 28.5478 22.799 31.3287C21.706 34.1096 22.849 37.1614 25.3518 38.145Z" fill="black"/>
<path opacity="0.05" d="M25.5498 37.6415C27.7745 38.5158 30.3754 37.1956 31.359 34.6928C32.3426 32.19 31.3365 29.4522 29.1117 28.5779C26.887 27.7036 24.2861 29.0238 23.3025 31.5266C22.3189 34.0294 23.325 36.7671 25.5498 37.6415Z" fill="black"/>
<path d="M25.7477 37.1379C27.6943 37.903 29.9812 36.7196 30.8555 34.4949C31.7298 32.2702 30.8605 29.8465 28.9139 29.0814C26.9672 28.3164 24.6804 29.4997 23.8061 31.7245C22.9317 33.9492 23.801 36.3729 25.7477 37.1379Z" fill="white"/>
</g>
<defs>
<filter id="filter0_d_952_10987" x="208.5" y="31.5" width="80.6108" height="80.6107" filterUnits="userSpaceOnUse" color-interpolation-filters="sRGB">
<feFlood flood-opacity="0" result="BackgroundImageFix"/>
<feColorMatrix in="SourceAlpha" type="matrix" values="0 0 0 0 0 0 0 0 0 0 0 0 0 0 0 0 0 0 127 0" result="hardAlpha"/>
<feOffset/>
<feGaussianBlur stdDeviation="4.25"/>
<feComposite in2="hardAlpha" operator="out"/>
<feColorMatrix type="matrix" values="0 0 0 0 0 0 0 0 0 0 0 0 0 0 0 0 0 0 0.2 0"/>
<feBlend mode="normal" in2="BackgroundImageFix" result="effect1_dropShadow_952_10987"/>
<feBlend mode="normal" in="SourceGraphic" in2="effect1_dropShadow_952_10987" result="shape"/>
</filter>
<filter id="filter1_d_952_10987" x="-7.5" y="-8.5" width="84.3362" height="84.3362" filterUnits="userSpaceOnUse" color-interpolation-filters="sRGB">
<feFlood flood-opacity="0" result="BackgroundImageFix"/>
<feColorMatrix in="SourceAlpha" type="matrix" values="0 0 0 0 0 0 0 0 0 0 0 0 0 0 0 0 0 0 127 0" result="hardAlpha"/>
<feOffset/>
<feGaussianBlur stdDeviation="4.25"/>
<feComposite in2="hardAlpha" operator="out"/>
<feColorMatrix type="matrix" values="0 0 0 0 0 0 0 0 0 0 0 0 0 0 0 0 0 0 0.2 0"/>
<feBlend mode="normal" in2="BackgroundImageFix" result="effect1_dropShadow_952_10987"/>
<feBlend mode="normal" in="SourceGraphic" in2="effect1_dropShadow_952_10987" result="shape"/>
</filter>
<radialGradient id="paint0_radial_952_10987" cx="0" cy="0" r="1" gradientUnits="userSpaceOnUse" gradientTransform="translate(144.5 44) rotate(87.9546) scale(42.0268 81.3127)">
<stop stop-color="#8C9EFF"/>
<stop offset="0.368" stop-color="#889AF8"/>
<stop offset="0.889" stop-color="#7E8FE6"/>
<stop offset="1" stop-color="#7B8CE1"/>
</radialGradient>
<radialGradient id="paint1_radial_952_10987" cx="0" cy="0" r="1" gradientUnits="userSpaceOnUse" gradientTransform="translate(244.887 57.1823) rotate(-15) scale(34.898 34.898)">
<stop stop-color="#8C9EFF"/>
<stop offset="0.368" stop-color="#889AF8"/>
<stop offset="0.889" stop-color="#5C6ECB"/>
<stop offset="1" stop-color="#6677CE"/>
</radialGradient>
<radialGradient id="paint2_radial_952_10987" cx="0" cy="0" r="1" gradientUnits="userSpaceOnUse" gradientTransform="translate(40.2054 19.5783) rotate(21.4549) scale(34.898 34.898)">
<stop stop-color="#8C9EFF"/>
<stop offset="0.368" stop-color="#889AF8"/>
<stop offset="0.889" stop-color="#5C6ECB"/>
<stop offset="1" stop-color="#6677CE"/>
</radialGradient>
</defs>
</svg>
