<svg width="1016" height="104" viewBox="0 0 1016 104" fill="none" xmlns="http://www.w3.org/2000/svg">
<path d="M60 55.1533C60 38.0325 73.8792 24.1533 91 24.1533H288C305.121 24.1533 319 38.0325 319 55.1533C319 72.2741 305.121 86.1533 288 86.1533H91C73.8792 86.1533 60 72.2741 60 55.1533Z" fill="url(#paint0_radial_501_726)"/>
<path d="M135.588 48.1079H138.628V58.2499C138.628 59.1874 138.417 60.0018 137.996 60.6931C137.579 61.3844 136.999 61.9171 136.256 62.2911C135.512 62.6652 134.648 62.8522 133.663 62.8522C132.787 62.8522 131.992 62.6983 131.277 62.3905C130.567 62.078 130.003 61.6046 129.587 60.9701C129.17 60.3309 128.964 59.5283 128.969 58.5624H132.03C132.039 58.9459 132.117 59.275 132.264 59.5496C132.416 59.8195 132.622 60.0278 132.882 60.1746C133.147 60.3167 133.46 60.3877 133.82 60.3877C134.198 60.3877 134.518 60.3072 134.778 60.1462C135.044 59.9805 135.245 59.739 135.382 59.4218C135.519 59.1046 135.588 58.7139 135.588 58.2499V48.1079ZM146.043 62.8664C144.939 62.8664 143.985 62.632 143.18 62.1633C142.38 61.6898 141.762 61.0316 141.327 60.1888C140.891 59.3413 140.673 58.3588 140.673 57.2414C140.673 56.1145 140.891 55.1296 141.327 54.2868C141.762 53.4393 142.38 52.7812 143.18 52.3124C143.985 51.8389 144.939 51.6022 146.043 51.6022C147.146 51.6022 148.098 51.8389 148.898 52.3124C149.703 52.7812 150.323 53.4393 150.759 54.2868C151.194 55.1296 151.412 56.1145 151.412 57.2414C151.412 58.3588 151.194 59.3413 150.759 60.1888C150.323 61.0316 149.703 61.6898 148.898 62.1633C148.098 62.632 147.146 62.8664 146.043 62.8664ZM146.057 60.5226C146.559 60.5226 146.978 60.3806 147.314 60.0965C147.65 59.8077 147.903 59.4147 148.074 58.9175C148.249 58.4204 148.337 57.8546 148.337 57.2201C148.337 56.5856 148.249 56.0198 148.074 55.5226C147.903 55.0255 147.65 54.6325 147.314 54.3437C146.978 54.0548 146.559 53.9104 146.057 53.9104C145.55 53.9104 145.124 54.0548 144.778 54.3437C144.438 54.6325 144.179 55.0255 144.004 55.5226C143.834 56.0198 143.749 56.5856 143.749 57.2201C143.749 57.8546 143.834 58.4204 144.004 58.9175C144.179 59.4147 144.438 59.8077 144.778 60.0965C145.124 60.3806 145.55 60.5226 146.057 60.5226ZM153.379 62.6533V51.7442H156.405V62.6533H153.379ZM154.899 50.338C154.449 50.338 154.063 50.1888 153.741 49.8905C153.424 49.5875 153.266 49.2253 153.266 48.8039C153.266 48.3872 153.424 48.0297 153.741 47.7314C154.063 47.4284 154.449 47.2769 154.899 47.2769C155.349 47.2769 155.732 47.4284 156.05 47.7314C156.372 48.0297 156.533 48.3872 156.533 48.8039C156.533 49.2253 156.372 49.5875 156.05 49.8905C155.732 50.1888 155.349 50.338 154.899 50.338ZM161.854 56.3465V62.6533H158.828V51.7442H161.712V53.6689H161.84C162.081 53.0345 162.486 52.5326 163.054 52.1633C163.623 51.7892 164.311 51.6022 165.121 51.6022C165.879 51.6022 166.539 51.7679 167.103 52.0993C167.666 52.4308 168.104 52.9043 168.417 53.5198C168.729 54.1306 168.885 54.8598 168.885 55.7073V62.6533H165.86V56.2471C165.864 55.5795 165.694 55.0586 165.348 54.6846C165.003 54.3058 164.527 54.1164 163.921 54.1164C163.514 54.1164 163.154 54.204 162.841 54.3792C162.533 54.5544 162.292 54.81 162.117 55.1462C161.946 55.4777 161.859 55.8778 161.854 56.3465ZM181.112 62.6533H175.956V48.1079H181.154C182.618 48.1079 183.877 48.3991 184.933 48.9814C185.989 49.5591 186.801 50.3901 187.369 51.4743C187.942 52.5586 188.228 53.856 188.228 55.3664C188.228 56.8815 187.942 58.1836 187.369 59.2726C186.801 60.3617 185.984 61.1974 184.919 61.7797C183.858 62.3621 182.589 62.6533 181.112 62.6533ZM179.031 60.0184H180.984C181.893 60.0184 182.658 59.8574 183.278 59.5354C183.903 59.2087 184.372 58.7045 184.684 58.0226C185.002 57.3361 185.16 56.4507 185.16 55.3664C185.16 54.2916 185.002 53.4133 184.684 52.7314C184.372 52.0496 183.905 51.5477 183.285 51.2258C182.665 50.9038 181.9 50.7428 180.991 50.7428H179.031V60.0184ZM190.45 62.6533V51.7442H193.475V62.6533H190.45ZM191.969 50.338C191.52 50.338 191.134 50.1888 190.812 49.8905C190.495 49.5875 190.336 49.2253 190.336 48.8039C190.336 48.3872 190.495 48.0297 190.812 47.7314C191.134 47.4284 191.52 47.2769 191.969 47.2769C192.419 47.2769 192.803 47.4284 193.12 47.7314C193.442 48.0297 193.603 48.3872 193.603 48.8039C193.603 49.2253 193.442 49.5875 193.12 49.8905C192.803 50.1888 192.419 50.338 191.969 50.338ZM204.975 54.855L202.206 55.0255C202.158 54.7887 202.056 54.5757 201.9 54.3863C201.744 54.1921 201.538 54.0383 201.282 53.9246C201.031 53.8063 200.731 53.7471 200.38 53.7471C199.912 53.7471 199.516 53.8465 199.194 54.0454C198.872 54.2395 198.711 54.4999 198.711 54.8266C198.711 55.087 198.815 55.3072 199.024 55.4871C199.232 55.6671 199.59 55.8115 200.096 55.9204L202.071 56.3181C203.131 56.5359 203.922 56.8863 204.443 57.3692C204.964 57.8522 205.224 58.4867 205.224 59.2726C205.224 59.9876 205.013 60.615 204.592 61.1547C204.175 61.6945 203.602 62.1159 202.873 62.4189C202.149 62.7172 201.313 62.8664 200.366 62.8664C198.922 62.8664 197.771 62.5657 196.914 61.9644C196.062 61.3583 195.563 60.5345 195.416 59.4928L198.392 59.3366C198.482 59.7769 198.699 60.1131 199.045 60.3451C199.391 60.5724 199.833 60.686 200.373 60.686C200.904 60.686 201.33 60.5842 201.652 60.3806C201.978 60.1723 202.144 59.9047 202.149 59.578C202.144 59.3034 202.028 59.0785 201.801 58.9033C201.574 58.7234 201.223 58.5861 200.75 58.4914L198.86 58.115C197.795 57.9019 197.002 57.5326 196.481 57.007C195.965 56.4814 195.707 55.8115 195.707 54.9971C195.707 54.2963 195.896 53.6926 196.275 53.186C196.659 52.6794 197.196 52.2887 197.887 52.0141C198.583 51.7395 199.398 51.6022 200.331 51.6022C201.708 51.6022 202.793 51.8934 203.583 52.4758C204.379 53.0581 204.843 53.8512 204.975 54.855ZM212.058 62.8664C210.941 62.8664 209.98 62.6296 209.175 62.1562C208.375 61.6779 207.759 61.0151 207.328 60.1675C206.902 59.32 206.689 58.3446 206.689 57.2414C206.689 56.124 206.904 55.1439 207.335 54.301C207.771 53.4535 208.389 52.793 209.189 52.3195C209.989 51.8413 210.941 51.6022 212.044 51.6022C212.996 51.6022 213.829 51.775 214.544 52.1206C215.259 52.4663 215.825 52.9516 216.241 53.5766C216.658 54.2016 216.888 54.9355 216.93 55.7783H214.075C213.995 55.2338 213.782 54.7958 213.436 54.4644C213.095 54.1282 212.648 53.9601 212.094 53.9601C211.625 53.9601 211.215 54.088 210.865 54.3437C210.519 54.5946 210.25 54.9616 210.055 55.4445C209.861 55.9275 209.764 56.5122 209.764 57.1988C209.764 57.8948 209.859 58.4867 210.048 58.9743C210.242 59.462 210.515 59.8337 210.865 60.0894C211.215 60.3451 211.625 60.4729 212.094 60.4729C212.439 60.4729 212.75 60.4019 213.024 60.2599C213.304 60.1178 213.533 59.9118 213.713 59.642C213.898 59.3673 214.018 59.0383 214.075 58.6547H216.93C216.883 59.4881 216.656 60.222 216.249 60.8564C215.846 61.4862 215.29 61.9786 214.58 62.3337C213.869 62.6888 213.029 62.8664 212.058 62.8664ZM223.797 62.8664C222.693 62.8664 221.739 62.632 220.934 62.1633C220.134 61.6898 219.516 61.0316 219.081 60.1888C218.645 59.3413 218.427 58.3588 218.427 57.2414C218.427 56.1145 218.645 55.1296 219.081 54.2868C219.516 53.4393 220.134 52.7812 220.934 52.3124C221.739 51.8389 222.693 51.6022 223.797 51.6022C224.9 51.6022 225.851 51.8389 226.652 52.3124C227.457 52.7812 228.077 53.4393 228.512 54.2868C228.948 55.1296 229.166 56.1145 229.166 57.2414C229.166 58.3588 228.948 59.3413 228.512 60.1888C228.077 61.0316 227.457 61.6898 226.652 62.1633C225.851 62.632 224.9 62.8664 223.797 62.8664ZM223.811 60.5226C224.313 60.5226 224.732 60.3806 225.068 60.0965C225.404 59.8077 225.657 59.4147 225.828 58.9175C226.003 58.4204 226.091 57.8546 226.091 57.2201C226.091 56.5856 226.003 56.0198 225.828 55.5226C225.657 55.0255 225.404 54.6325 225.068 54.3437C224.732 54.0548 224.313 53.9104 223.811 53.9104C223.304 53.9104 222.878 54.0548 222.532 54.3437C222.191 54.6325 221.933 55.0255 221.758 55.5226C221.588 56.0198 221.502 56.5856 221.502 57.2201C221.502 57.8546 221.588 58.4204 221.758 58.9175C221.933 59.4147 222.191 59.8077 222.532 60.0965C222.878 60.3806 223.304 60.5226 223.811 60.5226ZM231.133 62.6533V51.7442H234.066V53.6476H234.18C234.379 52.9706 234.713 52.4592 235.181 52.1135C235.65 51.7632 236.19 51.588 236.801 51.588C236.952 51.588 237.116 51.5974 237.291 51.6164C237.466 51.6353 237.62 51.6614 237.752 51.6945V54.3792C237.61 54.3366 237.414 54.2987 237.163 54.2655C236.912 54.2324 236.682 54.2158 236.474 54.2158C236.029 54.2158 235.631 54.3129 235.281 54.507C234.935 54.6964 234.661 54.9616 234.457 55.3025C234.258 55.6434 234.159 56.0364 234.159 56.4814V62.6533H231.133ZM242.829 62.8309C242 62.8309 241.25 62.6178 240.577 62.1917C239.91 61.7608 239.379 61.1287 238.987 60.2954C238.598 59.4573 238.404 58.4298 238.404 57.213C238.404 55.963 238.605 54.9237 239.008 54.0951C239.41 53.2617 239.945 52.6391 240.613 52.2272C241.285 51.8105 242.022 51.6022 242.822 51.6022C243.433 51.6022 243.942 51.7064 244.349 51.9147C244.761 52.1183 245.092 52.374 245.343 52.6817C245.599 52.9848 245.793 53.2831 245.925 53.5766H246.018V48.1079H249.036V62.6533H246.053V60.9062H245.925C245.783 61.2092 245.582 61.5099 245.322 61.8081C245.066 62.1017 244.732 62.3456 244.32 62.5397C243.913 62.7338 243.416 62.8309 242.829 62.8309ZM243.788 60.4232C244.275 60.4232 244.687 60.2906 245.023 60.0255C245.364 59.7556 245.625 59.3792 245.805 58.8962C245.989 58.4133 246.082 57.8474 246.082 57.1988C246.082 56.5501 245.992 55.9867 245.812 55.5084C245.632 55.0302 245.371 54.6609 245.031 54.4005C244.69 54.1401 244.275 54.0099 243.788 54.0099C243.29 54.0099 242.871 54.1448 242.531 54.4147C242.19 54.6846 241.932 55.0586 241.756 55.5368C241.581 56.0151 241.494 56.569 241.494 57.1988C241.494 57.8332 241.581 58.3943 241.756 58.882C241.936 59.365 242.194 59.7438 242.531 60.0184C242.871 60.2883 243.29 60.4232 243.788 60.4232Z" fill="white"/>
<g filter="url(#filter0_d_501_726)">
<path d="M314.321 54.9094C314.225 54.821 314.125 54.7581 314.003 54.709C313.038 54.3203 308.186 52.5273 302.816 53.3657C302.806 53.3674 302.765 53.376 302.756 53.3785C302.654 53.4059 302.581 53.4893 302.561 53.5876L302.431 54.2252C302.422 54.2644 302.422 54.307 302.433 54.3488C302.464 54.4627 302.563 54.5403 302.675 54.5484C302.682 54.5488 302.728 54.5464 302.745 54.5454C307.493 54.4248 310.727 55.6439 313.692 57.1515C308.884 56.1256 304.164 55.2226 296.885 57.1731C289.605 59.1237 285.971 62.2662 282.318 65.5582C284.132 62.7701 286.324 60.097 290.496 57.8276C290.51 57.8192 290.552 57.7991 290.557 57.7953C290.65 57.7323 290.697 57.6155 290.667 57.5016C290.656 57.4598 290.636 57.4226 290.609 57.3929L290.176 56.9062C290.11 56.8309 290.006 56.7949 289.903 56.8226C289.893 56.8251 289.853 56.8381 289.844 56.8417C284.774 58.8005 281.469 62.779 280.827 63.5984C280.746 63.7019 280.693 63.806 280.652 63.931C280.222 65.2863 277.724 74.1119 280.552 88.1903C280.582 88.3412 280.675 88.4811 280.804 88.5653C287.044 92.6556 294.102 91.4456 295.591 91.126C295.768 91.0876 295.915 90.9665 295.982 90.7984L296.843 88.6532C296.91 88.4852 296.801 88.3038 296.621 88.2882C293.518 88.0152 289.89 87.0673 286.315 84.6578C290.388 86.3109 296.21 87.5995 304.446 85.3927C312.682 83.1859 317.08 79.1589 319.78 75.6908C317.888 79.5652 315.22 82.1988 312.669 83.988C312.521 84.0915 312.518 84.3031 312.66 84.4152L314.478 85.8423C314.621 85.9541 314.808 85.9869 314.98 85.9308C316.431 85.4615 323.147 82.9818 326.506 76.3194C326.576 76.182 326.586 76.0147 326.536 75.8688C321.947 62.2623 315.371 55.8682 314.321 54.9094Z" fill="url(#paint1_radial_501_726)"/>
<path opacity="0.05" d="M309.559 77.3013C312.157 76.6053 313.636 73.7014 312.862 70.8152C312.089 67.9291 309.356 66.1536 306.759 66.8496C304.161 67.5456 302.682 70.4496 303.456 73.3357C304.229 76.2219 306.962 77.9973 309.559 77.3013Z" fill="black"/>
<path opacity="0.05" d="M309.419 76.7788C311.728 76.1601 313.036 73.5528 312.34 70.9553C311.644 68.3577 309.208 66.7535 306.899 67.3722C304.59 67.9909 303.282 70.5982 303.978 73.1957C304.674 75.7932 307.11 77.3974 309.419 76.7788Z" fill="black"/>
<path d="M309.279 76.2562C311.3 75.7148 312.436 73.4042 311.817 71.0953C311.199 68.7864 309.059 67.3535 307.039 67.8948C305.019 68.4362 303.882 70.7468 304.501 73.0557C305.12 75.3646 307.259 76.7975 309.279 76.2562Z" fill="white"/>
<path opacity="0.05" d="M295.972 80.942C298.57 80.246 300.048 77.342 299.275 74.4559C298.502 71.5697 295.769 69.7942 293.172 70.4903C290.574 71.1863 289.095 74.0902 289.869 76.9763C290.642 79.8625 293.375 81.638 295.972 80.942Z" fill="black"/>
<path opacity="0.05" d="M295.832 80.4194C298.141 79.8007 299.449 77.1934 298.753 74.5959C298.057 71.9984 295.621 70.3942 293.312 71.0128C291.003 71.6315 289.695 74.2388 290.391 76.8363C291.087 79.4339 293.523 81.0381 295.832 80.4194Z" fill="black"/>
<path d="M295.692 79.8968C297.712 79.3555 298.849 77.0449 298.23 74.7359C297.611 72.427 295.472 70.9941 293.452 71.5354C291.431 72.0768 290.295 74.3874 290.914 76.6963C291.532 79.0052 293.672 80.4381 295.692 79.8968Z" fill="white"/>
</g>
<g filter="url(#filter1_d_501_726)">
<path d="M107.579 28.1093C107.554 27.9808 107.511 27.871 107.442 27.7591C106.896 26.8727 104.06 22.5478 99.2424 20.0315C99.2327 20.0266 99.1953 20.0095 99.1862 20.006C99.0875 19.9672 98.9794 19.9909 98.9052 20.0583L98.4214 20.4936C98.3912 20.5201 98.3661 20.5544 98.3503 20.5947C98.3071 20.7045 98.3408 20.8259 98.426 20.8989C98.4313 20.9033 98.47 20.929 98.484 20.9379C102.374 23.662 104.252 26.5645 105.74 29.5388C102.483 25.8565 99.2231 22.3259 92.209 19.5693C85.1948 16.8128 80.4043 17.1809 75.5105 17.6584C78.6259 16.4936 81.9772 15.6459 86.6812 16.2994C86.6979 16.3013 86.7433 16.3099 86.7502 16.3103C86.8623 16.3148 86.9696 16.2489 87.0128 16.1391C87.0286 16.0988 87.0346 16.057 87.0305 16.017L86.9715 15.3683C86.9631 15.2685 86.9011 15.1779 86.8014 15.1387C86.7923 15.1351 86.7522 15.1217 86.7428 15.1192C81.5014 13.6824 76.4791 14.9186 75.4759 15.1964C75.3493 15.2315 75.2441 15.2832 75.1373 15.3597C73.9862 16.1944 66.7329 21.8087 60.6423 34.8126C60.577 34.952 60.5682 35.1195 60.6219 35.2638C63.2104 42.2615 69.6063 45.482 70.9942 46.11C71.1592 46.1841 71.3492 46.1739 71.5029 46.0785L73.4704 44.8649C73.6241 44.7695 73.6441 44.5588 73.5086 44.4393C71.1747 42.3757 68.8198 39.4575 67.3761 35.3954C69.6703 39.1454 73.5874 43.6413 81.523 46.76C89.4586 49.8787 95.3886 49.2527 99.6212 48.0677C95.797 50.0596 92.0868 50.593 88.972 50.5164C88.7913 50.5117 88.6626 50.6796 88.7102 50.8541L89.3249 53.0826C89.3736 53.2575 89.5044 53.395 89.6762 53.452C91.1216 53.9364 97.9974 55.9328 104.658 52.5699C104.795 52.5008 104.903 52.3721 104.95 52.2256C109.344 38.5548 107.854 29.5043 107.579 28.1093Z" fill="url(#paint2_radial_501_726)"/>
<path opacity="0.05" d="M90.4436 43.2901C92.9464 44.2737 95.8613 42.8167 96.9542 40.0358C98.0471 37.2548 96.9042 34.2031 94.4013 33.2195C91.8985 32.2359 88.9836 33.6929 87.8907 36.4738C86.7978 39.2547 87.9407 42.3065 90.4436 43.2901Z" fill="black"/>
<path opacity="0.05" d="M90.6414 42.7866C92.8662 43.6609 95.4671 42.3407 96.4507 39.8379C97.4343 37.335 96.4282 34.5973 94.2034 33.723C91.9787 32.8487 89.3778 34.1688 88.3942 36.6717C87.4106 39.1745 88.4167 41.9122 90.6414 42.7866Z" fill="black"/>
<path d="M90.8393 42.283C92.786 43.0481 95.0728 41.8647 95.9472 39.64C96.8215 37.4152 95.9522 34.9916 94.0055 34.2265C92.0589 33.4615 89.7721 34.6448 88.8977 36.8696C88.0234 39.0943 88.8927 41.518 90.8393 42.283Z" fill="white"/>
<path opacity="0.05" d="M77.3518 38.1451C79.8546 39.1287 82.7695 37.6717 83.8624 34.8908C84.9553 32.1098 83.8123 29.0581 81.3095 28.0745C78.8067 27.0908 75.8918 28.5478 74.7989 31.3288C73.706 34.1097 74.8489 37.1615 77.3518 38.1451Z" fill="black"/>
<path opacity="0.05" d="M77.5497 37.6415C79.7744 38.5159 82.3753 37.1957 83.3589 34.6929C84.3425 32.19 83.3364 29.4523 81.1116 28.578C78.8869 27.7037 76.286 29.0238 75.3024 31.5266C74.3188 34.0295 75.3249 36.7672 77.5497 37.6415Z" fill="black"/>
<path d="M77.7475 37.138C79.6942 37.903 81.981 36.7197 82.8554 34.495C83.7297 32.2702 82.8604 29.8465 80.9138 29.0815C78.9671 28.3165 76.6803 29.4998 75.8059 31.7245C74.9316 33.9493 75.8009 36.373 77.7475 37.138Z" fill="white"/>
</g>
<defs>
<filter id="filter0_d_501_726" x="260.5" y="31.5" width="80.6107" height="80.6108" filterUnits="userSpaceOnUse" color-interpolation-filters="sRGB">
<feFlood flood-opacity="0" result="BackgroundImageFix"/>
<feColorMatrix in="SourceAlpha" type="matrix" values="0 0 0 0 0 0 0 0 0 0 0 0 0 0 0 0 0 0 127 0" result="hardAlpha"/>
<feOffset/>
<feGaussianBlur stdDeviation="4.25"/>
<feComposite in2="hardAlpha" operator="out"/>
<feColorMatrix type="matrix" values="0 0 0 0 0 0 0 0 0 0 0 0 0 0 0 0 0 0 0.2 0"/>
<feBlend mode="normal" in2="BackgroundImageFix" result="effect1_dropShadow_501_726"/>
<feBlend mode="normal" in="SourceGraphic" in2="effect1_dropShadow_501_726" result="shape"/>
</filter>
<filter id="filter1_d_501_726" x="44.5" y="-8.5" width="84.3362" height="84.3362" filterUnits="userSpaceOnUse" color-interpolation-filters="sRGB">
<feFlood flood-opacity="0" result="BackgroundImageFix"/>
<feColorMatrix in="SourceAlpha" type="matrix" values="0 0 0 0 0 0 0 0 0 0 0 0 0 0 0 0 0 0 127 0" result="hardAlpha"/>
<feOffset/>
<feGaussianBlur stdDeviation="4.25"/>
<feComposite in2="hardAlpha" operator="out"/>
<feColorMatrix type="matrix" values="0 0 0 0 0 0 0 0 0 0 0 0 0 0 0 0 0 0 0.2 0"/>
<feBlend mode="normal" in2="BackgroundImageFix" result="effect1_dropShadow_501_726"/>
<feBlend mode="normal" in="SourceGraphic" in2="effect1_dropShadow_501_726" result="shape"/>
</filter>
<radialGradient id="paint0_radial_501_726" cx="0" cy="0" r="1" gradientUnits="userSpaceOnUse" gradientTransform="translate(196.5 44) rotate(87.9546) scale(42.0268 81.3127)">
<stop stop-color="#8C9EFF"/>
<stop offset="0.368" stop-color="#889AF8"/>
<stop offset="0.889" stop-color="#7E8FE6"/>
<stop offset="1" stop-color="#7B8CE1"/>
</radialGradient>
<radialGradient id="paint1_radial_501_726" cx="0" cy="0" r="1" gradientUnits="userSpaceOnUse" gradientTransform="translate(296.887 57.1825) rotate(-15) scale(34.898 34.898)">
<stop stop-color="#8C9EFF"/>
<stop offset="0.368" stop-color="#889AF8"/>
<stop offset="0.889" stop-color="#5C6ECB"/>
<stop offset="1" stop-color="#6677CE"/>
</radialGradient>
<radialGradient id="paint2_radial_501_726" cx="0" cy="0" r="1" gradientUnits="userSpaceOnUse" gradientTransform="translate(92.2054 19.5784) rotate(21.4549) scale(34.898 34.898)">
<stop stop-color="#8C9EFF"/>
<stop offset="0.368" stop-color="#889AF8"/>
<stop offset="0.889" stop-color="#5C6ECB"/>
<stop offset="1" stop-color="#6677CE"/>
</radialGradient>
</defs>
</svg>
