<svg width="52" height="52" viewBox="0 0 52 52" fill="none" xmlns="http://www.w3.org/2000/svg">
<rect x="1" y="1" width="50" height="50" rx="8" fill="url(#paint0_linear_952_11032)" fill-opacity="0.1" style="mix-blend-mode:lighten"/>
<rect x="1" y="1" width="50" height="50" rx="8" stroke="url(#paint1_linear_952_11032)" stroke-opacity="0.5" stroke-width="0.5"/>
<path d="M12.1132 10.9883C11.8893 10.9883 11.6705 11.0552 11.4849 11.1803C11.2992 11.3054 11.155 11.483 11.0709 11.6905C10.9867 11.898 10.9664 12.1258 11.0125 12.3449C11.0585 12.564 11.1689 12.7644 11.3295 12.9204L15.0795 16.6704C15.1832 16.7784 15.3073 16.8646 15.4447 16.924C15.5821 16.9833 15.73 17.0147 15.8797 17.0162C16.0293 17.0178 16.1778 16.9894 16.3164 16.9328C16.455 16.8762 16.5808 16.7926 16.6867 16.6868C16.7925 16.5809 16.8762 16.455 16.9328 16.3164C16.9893 16.1779 17.0177 16.0294 17.0162 15.8797C17.0146 15.7301 16.9833 15.5822 16.9239 15.4448C16.8645 15.3074 16.7783 15.1833 16.6703 15.0796L12.9203 11.3296C12.8155 11.2216 12.69 11.1358 12.5514 11.0771C12.4127 11.0185 12.2637 10.9883 12.1132 10.9883ZM39.853 10.9897C39.5608 10.9983 39.2834 11.1201 39.0795 11.3296L35.3295 15.0796C35.2216 15.1833 35.1354 15.3074 35.076 15.4448C35.0166 15.5822 34.9852 15.7301 34.9837 15.8797C34.9822 16.0294 35.0105 16.1779 35.0671 16.3164C35.1237 16.455 35.2073 16.5809 35.3132 16.6867C35.419 16.7926 35.5449 16.8762 35.6835 16.9328C35.8221 16.9894 35.9705 17.0178 36.1202 17.0162C36.2699 17.0147 36.4177 16.9833 36.5551 16.924C36.6925 16.8646 36.8167 16.7784 36.9203 16.6704L40.6703 12.9204C40.8326 12.7623 40.9434 12.559 40.9882 12.3369C41.033 12.1148 41.0098 11.8844 40.9214 11.6757C40.8331 11.4671 40.6839 11.29 40.4932 11.1676C40.3026 11.0452 40.0794 10.9832 39.853 10.9897ZM28.5912 11C28.4304 11.005 28.2725 11.0445 28.1282 11.1158C27.9839 11.187 27.8566 11.2884 27.7548 11.4131L14.2548 27.9131C14.1202 28.0779 14.035 28.2775 14.0093 28.4887C13.9835 28.7 14.0182 28.9142 14.1093 29.1065C14.2004 29.2989 14.3442 29.4614 14.524 29.5753C14.7037 29.6892 14.9121 29.7498 15.1249 29.75H22.2499V39.875C22.2502 40.1069 22.3222 40.3329 22.4559 40.5224C22.5896 40.7118 22.7786 40.8552 22.9969 40.9332C23.2153 41.0111 23.4524 41.0196 23.6758 40.9577C23.8992 40.8957 24.098 40.7662 24.245 40.5869L37.745 24.0869C37.8797 23.9221 37.9648 23.7225 37.9906 23.5113C38.0163 23.3 37.9816 23.0858 37.8905 22.8935C37.7994 22.7011 37.6556 22.5386 37.4759 22.4247C37.2961 22.3108 37.0877 22.2502 36.8749 22.25H29.7499V12.125C29.75 11.9744 29.7198 11.8253 29.6612 11.6866C29.6025 11.5478 29.5166 11.4223 29.4086 11.3174C29.3005 11.2125 29.1725 11.1303 29.0321 11.0758C28.8917 11.0213 28.7418 10.9955 28.5912 11ZM27.4999 15.2759V23.375C27.5 23.6734 27.6185 23.9595 27.8295 24.1705C28.0404 24.3814 28.3266 24.5 28.6249 24.5H34.5019L24.4999 36.7241V28.625C24.4999 28.3266 24.3814 28.0405 24.1704 27.8295C23.9594 27.6186 23.6733 27.5 23.3749 27.5H17.498L27.4999 15.2759ZM36.1132 34.9883C35.8893 34.9883 35.6705 35.0552 35.4849 35.1803C35.2992 35.3054 35.155 35.483 35.0709 35.6905C34.9867 35.898 34.9664 36.1258 35.0125 36.3449C35.0585 36.564 35.1689 36.7644 35.3295 36.9204L39.0795 40.6704C39.1832 40.7784 39.3074 40.8646 39.4447 40.924C39.5821 40.9833 39.73 41.0147 39.8797 41.0162C40.0293 41.0177 40.1778 40.9894 40.3164 40.9328C40.455 40.8762 40.5808 40.7926 40.6867 40.6867C40.7925 40.5809 40.8762 40.455 40.9327 40.3164C40.9893 40.1779 41.0177 40.0294 41.0162 39.8797C41.0146 39.7301 40.9833 39.5822 40.9239 39.4448C40.8645 39.3074 40.7783 39.1833 40.6703 39.0796L36.9203 35.3296C36.8155 35.2216 36.69 35.1358 36.5514 35.0771C36.4127 35.0185 36.2637 34.9883 36.1132 34.9883ZM15.853 34.9897C15.5608 34.9983 15.2834 35.1201 15.0795 35.3296L11.3295 39.0796C11.2216 39.1833 11.1354 39.3074 11.076 39.4448C11.0166 39.5822 10.9852 39.7301 10.9837 39.8797C10.9822 40.0294 11.0105 40.1779 11.0671 40.3164C11.1237 40.455 11.2073 40.5809 11.3132 40.6867C11.419 40.7926 11.5449 40.8762 11.6835 40.9328C11.8221 40.9894 11.9705 41.0178 12.1202 41.0162C12.2699 41.0147 12.4177 40.9833 12.5551 40.924C12.6925 40.8646 12.8167 40.7784 12.9203 40.6704L16.6703 36.9204C16.8326 36.7623 16.9434 36.559 16.9882 36.3369C17.033 36.1148 17.0098 35.8844 16.9214 35.6757C16.8331 35.4671 16.6839 35.29 16.4932 35.1676C16.3026 35.0452 16.0794 34.9832 15.853 34.9897Z" fill="url(#paint2_linear_952_11032)"/>
<defs>
<linearGradient id="paint0_linear_952_11032" x1="26" y1="1" x2="26" y2="51" gradientUnits="userSpaceOnUse">
<stop stop-color="#CFF3FF"/>
<stop offset="1" stop-color="#353535"/>
</linearGradient>
<linearGradient id="paint1_linear_952_11032" x1="26" y1="1" x2="26" y2="51" gradientUnits="userSpaceOnUse">
<stop stop-color="white"/>
<stop offset="0.6" stop-color="#999999" stop-opacity="0"/>
</linearGradient>
<linearGradient id="paint2_linear_952_11032" x1="10.9836" y1="26.0023" x2="41.0162" y2="26.0023" gradientUnits="userSpaceOnUse">
<stop offset="0.186" stop-color="#2593F9"/>
<stop offset="1" stop-color="#00FFD1"/>
</linearGradient>
</defs>
</svg>
