<svg width="661" height="216" viewBox="0 0 661 216" fill="none" xmlns="http://www.w3.org/2000/svg">
<g filter="url(#filter0_d_501_720)">
<rect x="33.5" y="13.3433" width="594" height="127" rx="19.5" fill="#243E43"/>
<rect x="33.5" y="13.3433" width="594" height="127" rx="19.5" stroke="url(#paint0_linear_501_720)"/>
<path d="M109.011 41.0909H116.307V65.4318C116.307 67.6818 115.801 69.6364 114.79 71.2955C113.79 72.9545 112.398 74.233 110.614 75.1307C108.83 76.0284 106.756 76.4773 104.392 76.4773C102.29 76.4773 100.381 76.108 98.6648 75.3693C96.9602 74.6193 95.608 73.483 94.608 71.9602C93.608 70.4261 93.1136 68.5 93.125 66.1818H100.472C100.494 67.1023 100.682 67.892 101.034 68.5511C101.398 69.1989 101.892 69.6989 102.517 70.0511C103.153 70.392 103.903 70.5625 104.767 70.5625C105.676 70.5625 106.443 70.3693 107.068 69.983C107.705 69.5852 108.188 69.0057 108.517 68.2443C108.847 67.483 109.011 66.5455 109.011 65.4318V41.0909ZM134.102 76.5114C131.455 76.5114 129.165 75.9489 127.233 74.8239C125.313 73.6875 123.83 72.108 122.784 70.0852C121.739 68.0511 121.216 65.6932 121.216 63.0114C121.216 60.3068 121.739 57.9432 122.784 55.9205C123.83 53.8864 125.313 52.3068 127.233 51.1818C129.165 50.0455 131.455 49.4773 134.102 49.4773C136.75 49.4773 139.034 50.0455 140.955 51.1818C142.886 52.3068 144.375 53.8864 145.42 55.9205C146.466 57.9432 146.989 60.3068 146.989 63.0114C146.989 65.6932 146.466 68.0511 145.42 70.0852C144.375 72.108 142.886 73.6875 140.955 74.8239C139.034 75.9489 136.75 76.5114 134.102 76.5114ZM134.136 70.8864C135.341 70.8864 136.347 70.5455 137.153 69.8636C137.96 69.1705 138.568 68.2273 138.977 67.0341C139.398 65.8409 139.608 64.483 139.608 62.9602C139.608 61.4375 139.398 60.0795 138.977 58.8864C138.568 57.6932 137.96 56.75 137.153 56.0568C136.347 55.3636 135.341 55.017 134.136 55.017C132.92 55.017 131.898 55.3636 131.068 56.0568C130.25 56.75 129.631 57.6932 129.21 58.8864C128.801 60.0795 128.597 61.4375 128.597 62.9602C128.597 64.483 128.801 65.8409 129.21 67.0341C129.631 68.2273 130.25 69.1705 131.068 69.8636C131.898 70.5455 132.92 70.8864 134.136 70.8864ZM151.71 76V49.8182H158.972V76H151.71ZM155.358 46.4432C154.278 46.4432 153.352 46.0852 152.58 45.3693C151.818 44.642 151.438 43.7727 151.438 42.7614C151.438 41.7614 151.818 40.9034 152.58 40.1875C153.352 39.4602 154.278 39.0966 155.358 39.0966C156.438 39.0966 157.358 39.4602 158.119 40.1875C158.892 40.9034 159.278 41.7614 159.278 42.7614C159.278 43.7727 158.892 44.642 158.119 45.3693C157.358 46.0852 156.438 46.4432 155.358 46.4432ZM172.05 60.8636V76H164.788V49.8182H171.709V54.4375H172.016C172.595 52.9148 173.567 51.7102 174.93 50.8239C176.294 49.9261 177.947 49.4773 179.891 49.4773C181.709 49.4773 183.294 49.875 184.646 50.6705C185.999 51.4659 187.05 52.6023 187.8 54.0795C188.55 55.5455 188.925 57.2955 188.925 59.3295V76H181.663V60.625C181.675 59.0227 181.266 57.7727 180.436 56.875C179.607 55.9659 178.464 55.5114 177.01 55.5114C176.033 55.5114 175.169 55.7216 174.419 56.142C173.68 56.5625 173.101 57.1761 172.68 57.983C172.271 58.7784 172.061 59.7386 172.05 60.8636ZM217.587 76.5114C214.939 76.5114 212.649 75.9489 210.717 74.8239C208.797 73.6875 207.314 72.108 206.268 70.0852C205.223 68.0511 204.7 65.6932 204.7 63.0114C204.7 60.3068 205.223 57.9432 206.268 55.9205C207.314 53.8864 208.797 52.3068 210.717 51.1818C212.649 50.0455 214.939 49.4773 217.587 49.4773C220.234 49.4773 222.518 50.0455 224.439 51.1818C226.371 52.3068 227.859 53.8864 228.905 55.9205C229.95 57.9432 230.473 60.3068 230.473 63.0114C230.473 65.6932 229.95 68.0511 228.905 70.0852C227.859 72.108 226.371 73.6875 224.439 74.8239C222.518 75.9489 220.234 76.5114 217.587 76.5114ZM217.621 70.8864C218.825 70.8864 219.831 70.5455 220.638 69.8636C221.445 69.1705 222.053 68.2273 222.462 67.0341C222.882 65.8409 223.092 64.483 223.092 62.9602C223.092 61.4375 222.882 60.0795 222.462 58.8864C222.053 57.6932 221.445 56.75 220.638 56.0568C219.831 55.3636 218.825 55.017 217.621 55.017C216.405 55.017 215.382 55.3636 214.553 56.0568C213.734 56.75 213.115 57.6932 212.695 58.8864C212.286 60.0795 212.081 61.4375 212.081 62.9602C212.081 64.483 212.286 65.8409 212.695 67.0341C213.115 68.2273 213.734 69.1705 214.553 69.8636C215.382 70.5455 216.405 70.8864 217.621 70.8864ZM251.984 64.8523V49.8182H259.246V76H252.274V71.2443H252.001C251.411 72.7784 250.428 74.0114 249.053 74.9432C247.689 75.875 246.024 76.3409 244.058 76.3409C242.308 76.3409 240.768 75.9432 239.439 75.1477C238.109 74.3523 237.07 73.2216 236.32 71.7557C235.581 70.2898 235.206 68.5341 235.195 66.4886V49.8182H242.456V65.1932C242.467 66.7386 242.882 67.9602 243.7 68.858C244.518 69.7557 245.615 70.2045 246.99 70.2045C247.865 70.2045 248.683 70.0057 249.445 69.608C250.206 69.1989 250.82 68.5966 251.286 67.8011C251.763 67.0057 251.996 66.0227 251.984 64.8523ZM265.054 76V49.8182H272.094V54.3864H272.366C272.844 52.7614 273.645 51.5341 274.77 50.7045C275.895 49.8636 277.19 49.4432 278.656 49.4432C279.02 49.4432 279.412 49.4659 279.832 49.5114C280.253 49.5568 280.622 49.6193 280.94 49.6989V56.142C280.599 56.0398 280.128 55.9489 279.526 55.8693C278.923 55.7898 278.372 55.75 277.872 55.75C276.804 55.75 275.849 55.983 275.009 56.4489C274.179 56.9034 273.52 57.5398 273.031 58.358C272.554 59.1761 272.315 60.1193 272.315 61.1875V76H265.054ZM326.741 53.3125H319.276C319.139 52.3466 318.861 51.4886 318.44 50.7386C318.02 49.9773 317.48 49.3295 316.821 48.7955C316.162 48.2614 315.401 47.8523 314.537 47.5682C313.685 47.2841 312.759 47.142 311.759 47.142C309.952 47.142 308.378 47.5909 307.037 48.4886C305.696 49.375 304.656 50.6705 303.918 52.375C303.179 54.0682 302.81 56.125 302.81 58.5455C302.81 61.0341 303.179 63.125 303.918 64.8182C304.668 66.5114 305.713 67.7898 307.054 68.6534C308.395 69.517 309.946 69.9489 311.707 69.9489C312.696 69.9489 313.611 69.8182 314.452 69.5568C315.304 69.2955 316.06 68.9148 316.719 68.4148C317.378 67.9034 317.923 67.2841 318.355 66.5568C318.798 65.8295 319.105 65 319.276 64.0682L326.741 64.1023C326.548 65.7045 326.065 67.25 325.293 68.7386C324.531 70.2159 323.503 71.5398 322.207 72.7102C320.923 73.8693 319.389 74.7898 317.605 75.4716C315.832 76.142 313.827 76.4773 311.588 76.4773C308.474 76.4773 305.69 75.7727 303.236 74.3636C300.793 72.9545 298.861 70.9148 297.44 68.2443C296.031 65.5739 295.327 62.3409 295.327 58.5455C295.327 54.7386 296.043 51.5 297.474 48.8295C298.906 46.1591 300.849 44.125 303.304 42.7273C305.759 41.3182 308.52 40.6136 311.588 40.6136C313.611 40.6136 315.486 40.8977 317.213 41.4659C318.952 42.0341 320.491 42.8636 321.832 43.9545C323.173 45.0341 324.264 46.358 325.105 47.9261C325.957 49.4943 326.503 51.2898 326.741 53.3125ZM343.727 76.5114C341.08 76.5114 338.79 75.9489 336.858 74.8239C334.938 73.6875 333.455 72.108 332.409 70.0852C331.364 68.0511 330.841 65.6932 330.841 63.0114C330.841 60.3068 331.364 57.9432 332.409 55.9205C333.455 53.8864 334.938 52.3068 336.858 51.1818C338.79 50.0455 341.08 49.4773 343.727 49.4773C346.375 49.4773 348.659 50.0455 350.58 51.1818C352.511 52.3068 354 53.8864 355.045 55.9205C356.091 57.9432 356.614 60.3068 356.614 63.0114C356.614 65.6932 356.091 68.0511 355.045 70.0852C354 72.108 352.511 73.6875 350.58 74.8239C348.659 75.9489 346.375 76.5114 343.727 76.5114ZM343.761 70.8864C344.966 70.8864 345.972 70.5455 346.778 69.8636C347.585 69.1705 348.193 68.2273 348.602 67.0341C349.023 65.8409 349.233 64.483 349.233 62.9602C349.233 61.4375 349.023 60.0795 348.602 58.8864C348.193 57.6932 347.585 56.75 346.778 56.0568C345.972 55.3636 344.966 55.017 343.761 55.017C342.545 55.017 341.523 55.3636 340.693 56.0568C339.875 56.75 339.256 57.6932 338.835 58.8864C338.426 60.0795 338.222 61.4375 338.222 62.9602C338.222 64.483 338.426 65.8409 338.835 67.0341C339.256 68.2273 339.875 69.1705 340.693 69.8636C341.523 70.5455 342.545 70.8864 343.761 70.8864ZM361.335 76V49.8182H368.256V54.4375H368.562C369.108 52.9034 370.017 51.6932 371.29 50.8068C372.562 49.9205 374.085 49.4773 375.858 49.4773C377.653 49.4773 379.182 49.9261 380.443 50.8239C381.705 51.7102 382.545 52.9148 382.966 54.4375H383.239C383.773 52.9375 384.739 51.7386 386.136 50.8409C387.545 49.9318 389.21 49.4773 391.131 49.4773C393.574 49.4773 395.557 50.2557 397.08 51.8125C398.614 53.358 399.381 55.5511 399.381 58.392V76H392.136V59.8239C392.136 58.3693 391.75 57.2784 390.977 56.5511C390.205 55.8239 389.239 55.4602 388.08 55.4602C386.761 55.4602 385.733 55.8807 384.994 56.7216C384.256 57.5511 383.886 58.6477 383.886 60.0114V76H376.847V59.6705C376.847 58.3864 376.477 57.3636 375.739 56.6023C375.011 55.8409 374.051 55.4602 372.858 55.4602C372.051 55.4602 371.324 55.6648 370.676 56.0739C370.04 56.4716 369.534 57.0341 369.159 57.7614C368.784 58.4773 368.597 59.3182 368.597 60.2841V76H361.335ZM405.116 76V49.8182H412.037V54.4375H412.344C412.889 52.9034 413.798 51.6932 415.071 50.8068C416.344 49.9205 417.866 49.4773 419.639 49.4773C421.435 49.4773 422.963 49.9261 424.224 50.8239C425.486 51.7102 426.327 52.9148 426.747 54.4375H427.02C427.554 52.9375 428.52 51.7386 429.918 50.8409C431.327 49.9318 432.991 49.4773 434.912 49.4773C437.355 49.4773 439.338 50.2557 440.861 51.8125C442.395 53.358 443.162 55.5511 443.162 58.392V76H435.918V59.8239C435.918 58.3693 435.531 57.2784 434.759 56.5511C433.986 55.8239 433.02 55.4602 431.861 55.4602C430.543 55.4602 429.514 55.8807 428.776 56.7216C428.037 57.5511 427.668 58.6477 427.668 60.0114V76H420.628V59.6705C420.628 58.3864 420.259 57.3636 419.52 56.6023C418.793 55.8409 417.832 55.4602 416.639 55.4602C415.832 55.4602 415.105 55.6648 414.457 56.0739C413.821 56.4716 413.315 57.0341 412.94 57.7614C412.565 58.4773 412.378 59.3182 412.378 60.2841V76H405.116ZM465.688 64.8523V49.8182H472.949V76H465.977V71.2443H465.705C465.114 72.7784 464.131 74.0114 462.756 74.9432C461.392 75.875 459.727 76.3409 457.761 76.3409C456.011 76.3409 454.472 75.9432 453.142 75.1477C451.813 74.3523 450.773 73.2216 450.023 71.7557C449.284 70.2898 448.909 68.5341 448.898 66.4886V49.8182H456.159V65.1932C456.17 66.7386 456.585 67.9602 457.403 68.858C458.222 69.7557 459.318 70.2045 460.693 70.2045C461.568 70.2045 462.386 70.0057 463.148 69.608C463.909 69.1989 464.523 68.5966 464.989 67.8011C465.466 67.0057 465.699 66.0227 465.688 64.8523ZM486.018 60.8636V76H478.757V49.8182H485.678V54.4375H485.984C486.564 52.9148 487.536 51.7102 488.899 50.8239C490.263 49.9261 491.916 49.4773 493.859 49.4773C495.678 49.4773 497.263 49.875 498.615 50.6705C499.967 51.4659 501.018 52.6023 501.768 54.0795C502.518 55.5455 502.893 57.2955 502.893 59.3295V76H495.632V60.625C495.643 59.0227 495.234 57.7727 494.405 56.875C493.575 55.9659 492.433 55.5114 490.979 55.5114C490.001 55.5114 489.138 55.7216 488.388 56.142C487.649 56.5625 487.07 57.1761 486.649 57.983C486.24 58.7784 486.03 59.7386 486.018 60.8636ZM508.616 76V49.8182H515.878V76H508.616ZM512.264 46.4432C511.185 46.4432 510.259 46.0852 509.486 45.3693C508.724 44.642 508.344 43.7727 508.344 42.7614C508.344 41.7614 508.724 40.9034 509.486 40.1875C510.259 39.4602 511.185 39.0966 512.264 39.0966C513.344 39.0966 514.264 39.4602 515.026 40.1875C515.798 40.9034 516.185 41.7614 516.185 42.7614C516.185 43.7727 515.798 44.642 515.026 45.3693C514.264 46.0852 513.344 46.4432 512.264 46.4432ZM535.621 49.8182V55.2727H519.854V49.8182H535.621ZM523.433 43.5455H530.695V67.9545C530.695 68.625 530.797 69.1477 531.001 69.5227C531.206 69.8864 531.49 70.142 531.854 70.2898C532.229 70.4375 532.661 70.5114 533.149 70.5114C533.49 70.5114 533.831 70.483 534.172 70.4261C534.513 70.358 534.774 70.3068 534.956 70.2727L536.098 75.6761C535.734 75.7898 535.223 75.9205 534.564 76.0682C533.905 76.2273 533.104 76.3239 532.161 76.358C530.411 76.4261 528.876 76.1932 527.558 75.6591C526.251 75.125 525.234 74.2955 524.507 73.1705C523.78 72.0455 523.422 70.625 523.433 68.9091V43.5455ZM544.834 85.8182C543.913 85.8182 543.05 85.7443 542.243 85.5966C541.447 85.4602 540.788 85.2841 540.266 85.0682L541.902 79.6477C542.754 79.9091 543.521 80.0511 544.203 80.0739C544.896 80.0966 545.493 79.9375 545.993 79.5966C546.504 79.2557 546.919 78.6761 547.237 77.858L547.663 76.75L538.271 49.8182H545.908L551.328 69.0455H551.601L557.072 49.8182H564.76L554.584 78.8295C554.095 80.2386 553.43 81.4659 552.589 82.5114C551.76 83.5682 550.709 84.3807 549.436 84.9489C548.163 85.5284 546.629 85.8182 544.834 85.8182Z" fill="white"/>
<path d="M101.716 108.091C101.631 107.371 101.285 106.812 100.679 106.415C100.073 106.017 99.3295 105.818 98.4489 105.818C97.8049 105.818 97.2415 105.922 96.7585 106.131C96.2803 106.339 95.9063 106.625 95.6364 106.99C95.3712 107.355 95.2386 107.769 95.2386 108.233C95.2386 108.621 95.331 108.955 95.5156 109.234C95.705 109.509 95.9465 109.739 96.2401 109.923C96.5336 110.103 96.8414 110.252 97.1634 110.371C97.4853 110.484 97.7812 110.577 98.0511 110.648L99.5284 111.045C99.9072 111.145 100.329 111.282 100.793 111.457C101.261 111.633 101.709 111.872 102.135 112.175C102.566 112.473 102.921 112.857 103.2 113.325C103.48 113.794 103.619 114.369 103.619 115.051C103.619 115.837 103.413 116.547 103.001 117.182C102.594 117.816 101.998 118.321 101.212 118.695C100.43 119.069 99.4811 119.256 98.3636 119.256C97.322 119.256 96.42 119.088 95.6577 118.751C94.9001 118.415 94.3035 117.946 93.8679 117.345C93.437 116.744 93.1932 116.045 93.1364 115.25H94.9545C95.0019 115.799 95.1866 116.254 95.5085 116.614C95.8352 116.969 96.2472 117.234 96.7443 117.409C97.2462 117.58 97.786 117.665 98.3636 117.665C99.036 117.665 99.6397 117.556 100.175 117.338C100.71 117.116 101.134 116.808 101.446 116.415C101.759 116.017 101.915 115.553 101.915 115.023C101.915 114.54 101.78 114.147 101.51 113.844C101.24 113.541 100.885 113.295 100.445 113.105C100.004 112.916 99.5284 112.75 99.017 112.608L97.2273 112.097C96.0909 111.77 95.1913 111.304 94.5284 110.697C93.8655 110.091 93.5341 109.298 93.5341 108.318C93.5341 107.504 93.7543 106.794 94.1946 106.188C94.6397 105.577 95.2363 105.103 95.9844 104.767C96.7372 104.426 97.5777 104.256 98.5057 104.256C99.4432 104.256 100.277 104.424 101.006 104.76C101.735 105.091 102.313 105.546 102.739 106.124C103.17 106.701 103.397 107.357 103.42 108.091H101.716ZM111.032 108.091V109.511H105.379V108.091H111.032ZM107.027 105.477H108.703V115.875C108.703 116.348 108.771 116.704 108.909 116.94C109.051 117.172 109.231 117.329 109.449 117.409C109.671 117.485 109.905 117.523 110.152 117.523C110.336 117.523 110.488 117.513 110.606 117.494C110.725 117.471 110.819 117.452 110.89 117.438L111.231 118.943C111.118 118.986 110.959 119.028 110.755 119.071C110.552 119.118 110.294 119.142 109.981 119.142C109.508 119.142 109.044 119.04 108.589 118.837C108.139 118.633 107.765 118.323 107.467 117.906C107.173 117.49 107.027 116.964 107.027 116.33V105.477ZM116.764 119.256C116.073 119.256 115.445 119.125 114.882 118.865C114.318 118.6 113.871 118.219 113.539 117.722C113.208 117.22 113.042 116.614 113.042 115.903C113.042 115.278 113.165 114.772 113.412 114.384C113.658 113.991 113.987 113.683 114.399 113.46C114.811 113.238 115.265 113.072 115.762 112.963C116.264 112.849 116.769 112.759 117.275 112.693C117.938 112.608 118.475 112.544 118.887 112.501C119.304 112.454 119.607 112.376 119.797 112.267C119.991 112.158 120.088 111.969 120.088 111.699V111.642C120.088 110.941 119.896 110.397 119.512 110.009C119.134 109.62 118.558 109.426 117.787 109.426C116.986 109.426 116.359 109.601 115.904 109.952C115.45 110.302 115.13 110.676 114.946 111.074L113.355 110.506C113.639 109.843 114.018 109.327 114.491 108.957C114.969 108.583 115.49 108.323 116.054 108.176C116.622 108.025 117.181 107.949 117.73 107.949C118.08 107.949 118.483 107.991 118.937 108.077C119.396 108.157 119.839 108.325 120.265 108.581C120.696 108.837 121.054 109.223 121.338 109.739C121.622 110.255 121.764 110.946 121.764 111.812V119H120.088V117.523H120.002C119.889 117.759 119.699 118.013 119.434 118.283C119.169 118.553 118.816 118.782 118.376 118.972C117.936 119.161 117.398 119.256 116.764 119.256ZM117.02 117.75C117.682 117.75 118.241 117.62 118.696 117.359C119.155 117.099 119.501 116.763 119.733 116.351C119.969 115.939 120.088 115.506 120.088 115.051V113.517C120.017 113.602 119.86 113.68 119.619 113.751C119.382 113.818 119.108 113.877 118.795 113.929C118.487 113.976 118.187 114.019 117.893 114.057C117.604 114.09 117.37 114.118 117.19 114.142C116.754 114.199 116.347 114.291 115.968 114.419C115.594 114.542 115.291 114.729 115.059 114.98C114.832 115.226 114.718 115.562 114.718 115.989C114.718 116.571 114.934 117.011 115.365 117.31C115.8 117.603 116.352 117.75 117.02 117.75ZM124.823 119V108.091H126.442V109.739H126.556C126.755 109.199 127.115 108.761 127.636 108.425C128.156 108.089 128.744 107.92 129.397 107.92C129.52 107.92 129.674 107.923 129.859 107.928C130.043 107.932 130.183 107.939 130.278 107.949V109.653C130.221 109.639 130.091 109.618 129.887 109.589C129.688 109.556 129.478 109.54 129.255 109.54C128.725 109.54 128.251 109.651 127.835 109.874C127.423 110.091 127.096 110.394 126.854 110.783C126.618 111.166 126.499 111.604 126.499 112.097V119H124.823ZM137.692 108.091V109.511H132.039V108.091H137.692ZM133.687 105.477H135.363V115.875C135.363 116.348 135.432 116.704 135.569 116.94C135.711 117.172 135.891 117.329 136.109 117.409C136.331 117.485 136.566 117.523 136.812 117.523C136.996 117.523 137.148 117.513 137.266 117.494C137.385 117.471 137.479 117.452 137.55 117.438L137.891 118.943C137.778 118.986 137.619 119.028 137.415 119.071C137.212 119.118 136.954 119.142 136.641 119.142C136.168 119.142 135.704 119.04 135.249 118.837C134.799 118.633 134.425 118.323 134.127 117.906C133.834 117.49 133.687 116.964 133.687 116.33V105.477ZM146.066 119V104.455H154.844V106.017H147.827V110.932H154.39V112.494H147.827V117.438H154.958V119H146.066ZM161.002 119.256C160.311 119.256 159.683 119.125 159.12 118.865C158.557 118.6 158.109 118.219 157.778 117.722C157.446 117.22 157.281 116.614 157.281 115.903C157.281 115.278 157.404 114.772 157.65 114.384C157.896 113.991 158.225 113.683 158.637 113.46C159.049 113.238 159.504 113.072 160.001 112.963C160.503 112.849 161.007 112.759 161.513 112.693C162.176 112.608 162.714 112.544 163.126 112.501C163.542 112.454 163.845 112.376 164.035 112.267C164.229 112.158 164.326 111.969 164.326 111.699V111.642C164.326 110.941 164.134 110.397 163.751 110.009C163.372 109.62 162.797 109.426 162.025 109.426C161.225 109.426 160.597 109.601 160.143 109.952C159.688 110.302 159.369 110.676 159.184 111.074L157.593 110.506C157.877 109.843 158.256 109.327 158.729 108.957C159.208 108.583 159.728 108.323 160.292 108.176C160.86 108.025 161.419 107.949 161.968 107.949C162.318 107.949 162.721 107.991 163.175 108.077C163.635 108.157 164.077 108.325 164.504 108.581C164.934 108.837 165.292 109.223 165.576 109.739C165.86 110.255 166.002 110.946 166.002 111.812V119H164.326V117.523H164.241C164.127 117.759 163.938 118.013 163.673 118.283C163.407 118.553 163.055 118.782 162.614 118.972C162.174 119.161 161.637 119.256 161.002 119.256ZM161.258 117.75C161.921 117.75 162.479 117.62 162.934 117.359C163.393 117.099 163.739 116.763 163.971 116.351C164.208 115.939 164.326 115.506 164.326 115.051V113.517C164.255 113.602 164.099 113.68 163.857 113.751C163.621 113.818 163.346 113.877 163.033 113.929C162.726 113.976 162.425 114.019 162.131 114.057C161.843 114.09 161.608 114.118 161.428 114.142C160.993 114.199 160.585 114.291 160.207 114.419C159.833 114.542 159.53 114.729 159.298 114.98C159.07 115.226 158.957 115.562 158.957 115.989C158.957 116.571 159.172 117.011 159.603 117.31C160.039 117.603 160.59 117.75 161.258 117.75ZM169.061 119V108.091H170.681V109.739H170.794C170.993 109.199 171.353 108.761 171.874 108.425C172.395 108.089 172.982 107.92 173.635 107.92C173.758 107.92 173.912 107.923 174.097 107.928C174.282 107.932 174.421 107.939 174.516 107.949V109.653C174.459 109.639 174.329 109.618 174.125 109.589C173.926 109.556 173.716 109.54 173.493 109.54C172.963 109.54 172.489 109.651 172.073 109.874C171.661 110.091 171.334 110.394 171.093 110.783C170.856 111.166 170.738 111.604 170.738 112.097V119H169.061ZM178.179 112.438V119H176.503V108.091H178.122V109.795H178.264C178.52 109.241 178.908 108.796 179.429 108.46C179.95 108.119 180.622 107.949 181.446 107.949C182.185 107.949 182.831 108.1 183.385 108.403C183.939 108.702 184.37 109.156 184.678 109.767C184.985 110.373 185.139 111.14 185.139 112.068V119H183.463V112.182C183.463 111.325 183.241 110.657 182.795 110.179C182.35 109.696 181.74 109.455 180.963 109.455C180.428 109.455 179.95 109.571 179.528 109.803C179.112 110.035 178.783 110.373 178.541 110.818C178.3 111.263 178.179 111.803 178.179 112.438ZM188.202 119V108.091H189.878V119H188.202ZM189.054 106.273C188.728 106.273 188.446 106.161 188.209 105.939C187.977 105.716 187.861 105.449 187.861 105.136C187.861 104.824 187.977 104.556 188.209 104.334C188.446 104.111 188.728 104 189.054 104C189.381 104 189.66 104.111 189.892 104.334C190.129 104.556 190.248 104.824 190.248 105.136C190.248 105.449 190.129 105.716 189.892 105.939C189.66 106.161 189.381 106.273 189.054 106.273ZM194.624 112.438V119H192.948V108.091H194.567V109.795H194.71C194.965 109.241 195.353 108.796 195.874 108.46C196.395 108.119 197.067 107.949 197.891 107.949C198.63 107.949 199.276 108.1 199.83 108.403C200.384 108.702 200.815 109.156 201.123 109.767C201.431 110.373 201.585 111.14 201.585 112.068V119H199.908V112.182C199.908 111.325 199.686 110.657 199.241 110.179C198.796 109.696 198.185 109.455 197.408 109.455C196.873 109.455 196.395 109.571 195.974 109.803C195.557 110.035 195.228 110.373 194.987 110.818C194.745 111.263 194.624 111.803 194.624 112.438ZM209.051 123.318C208.241 123.318 207.545 123.214 206.963 123.006C206.38 122.802 205.895 122.532 205.507 122.196C205.123 121.865 204.818 121.509 204.591 121.131L205.926 120.193C206.077 120.392 206.269 120.619 206.501 120.875C206.733 121.135 207.05 121.36 207.453 121.55C207.86 121.744 208.393 121.841 209.051 121.841C209.931 121.841 210.658 121.628 211.231 121.202C211.804 120.776 212.091 120.108 212.091 119.199V116.983H211.949C211.825 117.182 211.65 117.428 211.423 117.722C211.2 118.01 210.878 118.268 210.457 118.496C210.04 118.718 209.477 118.83 208.767 118.83C207.886 118.83 207.095 118.621 206.395 118.205C205.699 117.788 205.147 117.182 204.74 116.386C204.337 115.591 204.136 114.625 204.136 113.489C204.136 112.371 204.333 111.398 204.725 110.57C205.118 109.736 205.665 109.092 206.366 108.638C207.067 108.179 207.877 107.949 208.795 107.949C209.505 107.949 210.069 108.067 210.485 108.304C210.907 108.536 211.229 108.801 211.451 109.099C211.679 109.393 211.854 109.634 211.977 109.824H212.147V108.091H213.767V119.312C213.767 120.25 213.554 121.012 213.127 121.599C212.706 122.191 212.138 122.625 211.423 122.899C210.713 123.179 209.922 123.318 209.051 123.318ZM208.994 117.324C209.666 117.324 210.234 117.17 210.699 116.862C211.163 116.554 211.515 116.112 211.757 115.534C211.998 114.956 212.119 114.265 212.119 113.46C212.119 112.674 212.001 111.981 211.764 111.379C211.527 110.778 211.177 110.307 210.713 109.966C210.249 109.625 209.676 109.455 208.994 109.455C208.284 109.455 207.692 109.634 207.218 109.994C206.75 110.354 206.397 110.837 206.16 111.443C205.928 112.049 205.812 112.722 205.812 113.46C205.812 114.218 205.931 114.888 206.167 115.47C206.409 116.048 206.764 116.502 207.233 116.834C207.706 117.161 208.293 117.324 208.994 117.324ZM221.892 106.017V104.455H232.801V106.017H228.227V119H226.466V106.017H221.892ZM238.142 119.227C237.157 119.227 236.293 118.993 235.549 118.524C234.811 118.055 234.233 117.4 233.816 116.557C233.404 115.714 233.199 114.729 233.199 113.602C233.199 112.466 233.404 111.474 233.816 110.626C234.233 109.779 234.811 109.121 235.549 108.652C236.293 108.183 237.157 107.949 238.142 107.949C239.127 107.949 239.988 108.183 240.727 108.652C241.47 109.121 242.048 109.779 242.46 110.626C242.877 111.474 243.085 112.466 243.085 113.602C243.085 114.729 242.877 115.714 242.46 116.557C242.048 117.4 241.47 118.055 240.727 118.524C239.988 118.993 239.127 119.227 238.142 119.227ZM238.142 117.722C238.89 117.722 239.505 117.53 239.988 117.146C240.471 116.763 240.829 116.259 241.061 115.634C241.293 115.009 241.409 114.331 241.409 113.602C241.409 112.873 241.293 112.194 241.061 111.564C240.829 110.934 240.471 110.425 239.988 110.037C239.505 109.649 238.89 109.455 238.142 109.455C237.394 109.455 236.778 109.649 236.295 110.037C235.812 110.425 235.455 110.934 235.223 111.564C234.991 112.194 234.875 112.873 234.875 113.602C234.875 114.331 234.991 115.009 235.223 115.634C235.455 116.259 235.812 116.763 236.295 117.146C236.778 117.53 237.394 117.722 238.142 117.722ZM249.763 119.227C248.854 119.227 248.051 118.998 247.355 118.538C246.659 118.074 246.115 117.421 245.722 116.578C245.329 115.731 245.132 114.729 245.132 113.574C245.132 112.428 245.329 111.434 245.722 110.591C246.115 109.748 246.661 109.097 247.362 108.638C248.063 108.179 248.873 107.949 249.791 107.949C250.501 107.949 251.063 108.067 251.474 108.304C251.891 108.536 252.208 108.801 252.426 109.099C252.649 109.393 252.821 109.634 252.945 109.824H253.087V104.455H254.763V119H253.143V117.324H252.945C252.821 117.523 252.646 117.774 252.419 118.077C252.192 118.375 251.867 118.643 251.446 118.879C251.025 119.111 250.464 119.227 249.763 119.227ZM249.99 117.722C250.662 117.722 251.231 117.546 251.695 117.196C252.159 116.841 252.511 116.351 252.753 115.726C252.994 115.096 253.115 114.369 253.115 113.545C253.115 112.731 252.997 112.018 252.76 111.408C252.523 110.792 252.173 110.314 251.709 109.973C251.245 109.627 250.672 109.455 249.99 109.455C249.28 109.455 248.688 109.637 248.214 110.001C247.746 110.361 247.393 110.851 247.156 111.472C246.924 112.087 246.808 112.778 246.808 113.545C246.808 114.322 246.927 115.027 247.163 115.662C247.405 116.292 247.76 116.794 248.229 117.168C248.702 117.537 249.289 117.722 249.99 117.722ZM261.276 119.256C260.584 119.256 259.957 119.125 259.393 118.865C258.83 118.6 258.383 118.219 258.051 117.722C257.72 117.22 257.554 116.614 257.554 115.903C257.554 115.278 257.677 114.772 257.923 114.384C258.17 113.991 258.499 113.683 258.911 113.46C259.322 113.238 259.777 113.072 260.274 112.963C260.776 112.849 261.28 112.759 261.787 112.693C262.45 112.608 262.987 112.544 263.399 112.501C263.816 112.454 264.119 112.376 264.308 112.267C264.502 112.158 264.599 111.969 264.599 111.699V111.642C264.599 110.941 264.408 110.397 264.024 110.009C263.645 109.62 263.07 109.426 262.298 109.426C261.498 109.426 260.871 109.601 260.416 109.952C259.962 110.302 259.642 110.676 259.457 111.074L257.866 110.506C258.151 109.843 258.529 109.327 259.003 108.957C259.481 108.583 260.002 108.323 260.565 108.176C261.134 108.025 261.692 107.949 262.241 107.949C262.592 107.949 262.994 107.991 263.449 108.077C263.908 108.157 264.351 108.325 264.777 108.581C265.208 108.837 265.565 109.223 265.849 109.739C266.134 110.255 266.276 110.946 266.276 111.812V119H264.599V117.523H264.514C264.401 117.759 264.211 118.013 263.946 118.283C263.681 118.553 263.328 118.782 262.888 118.972C262.447 119.161 261.91 119.256 261.276 119.256ZM261.531 117.75C262.194 117.75 262.753 117.62 263.207 117.359C263.667 117.099 264.012 116.763 264.244 116.351C264.481 115.939 264.599 115.506 264.599 115.051V113.517C264.528 113.602 264.372 113.68 264.131 113.751C263.894 113.818 263.619 113.877 263.307 113.929C262.999 113.976 262.698 114.019 262.405 114.057C262.116 114.09 261.882 114.118 261.702 114.142C261.266 114.199 260.859 114.291 260.48 114.419C260.106 114.542 259.803 114.729 259.571 114.98C259.344 115.226 259.23 115.562 259.23 115.989C259.23 116.571 259.446 117.011 259.876 117.31C260.312 117.603 260.864 117.75 261.531 117.75ZM270.024 123.091C269.74 123.091 269.486 123.067 269.264 123.02C269.041 122.977 268.887 122.935 268.802 122.892L269.228 121.415C269.636 121.519 269.995 121.557 270.308 121.528C270.62 121.5 270.897 121.36 271.139 121.109C271.385 120.863 271.61 120.463 271.814 119.909L272.126 119.057L268.092 108.091H269.91L272.922 116.784H273.035L276.047 108.091H277.865L273.234 120.591C273.026 121.154 272.768 121.621 272.46 121.99C272.152 122.364 271.795 122.641 271.387 122.821C270.985 123.001 270.53 123.091 270.024 123.091ZM282.293 104.455L282.151 114.909H280.503L280.361 104.455H282.293ZM281.327 119.114C280.977 119.114 280.676 118.988 280.425 118.737C280.174 118.486 280.049 118.186 280.049 117.835C280.049 117.485 280.174 117.184 280.425 116.933C280.676 116.682 280.977 116.557 281.327 116.557C281.677 116.557 281.978 116.682 282.229 116.933C282.48 117.184 282.605 117.485 282.605 117.835C282.605 118.067 282.546 118.28 282.428 118.474C282.314 118.669 282.16 118.825 281.966 118.943C281.777 119.057 281.564 119.114 281.327 119.114Z" fill="url(#paint1_linear_501_720)"/>
<path d="M55.6454 123.224L99.4982 137.114C88.4767 155.994 66.8484 165.995 45.3252 162.163L35.2579 160.371C34.1083 160.166 33.8143 158.653 34.8035 158.033L45.3492 151.419C54.8224 145.479 59.0612 133.871 55.6454 123.224Z" fill="#1D2236"/>
<path d="M55.6454 123.224L99.4982 137.114C88.4767 155.994 66.8484 165.995 45.3252 162.163L35.2579 160.371C34.1083 160.166 33.8143 158.653 34.8035 158.033L45.3492 151.419C54.8224 145.479 59.0612 133.871 55.6454 123.224Z" fill="#243E43"/>
</g>
<defs>
<filter id="filter0_d_501_720" x="0.700001" y="0.543262" width="659.6" height="214.729" filterUnits="userSpaceOnUse" color-interpolation-filters="sRGB">
<feFlood flood-opacity="0" result="BackgroundImageFix"/>
<feColorMatrix in="SourceAlpha" type="matrix" values="0 0 0 0 0 0 0 0 0 0 0 0 0 0 0 0 0 0 127 0" result="hardAlpha"/>
<feOffset dy="20"/>
<feGaussianBlur stdDeviation="16.15"/>
<feComposite in2="hardAlpha" operator="out"/>
<feColorMatrix type="matrix" values="0 0 0 0 0.0591146 0 0 0 0 0.0591146 0 0 0 0 0.0591146 0 0 0 0.3 0"/>
<feBlend mode="normal" in2="BackgroundImageFix" result="effect1_dropShadow_501_720"/>
<feBlend mode="normal" in="SourceGraphic" in2="effect1_dropShadow_501_720" result="shape"/>
</filter>
<linearGradient id="paint0_linear_501_720" x1="37.5" y1="162.5" x2="634" y2="13" gradientUnits="userSpaceOnUse">
<stop stop-color="#0C4D69" stop-opacity="0"/>
<stop offset="1" stop-color="#18B18C"/>
</linearGradient>
<linearGradient id="paint1_linear_501_720" x1="92" y1="112" x2="282.5" y2="112" gradientUnits="userSpaceOnUse">
<stop offset="1" stop-color="#00FFD1"/>
</linearGradient>
</defs>
</svg>
