<svg width="50" height="50" viewBox="0 0 50 50" fill="none" xmlns="http://www.w3.org/2000/svg">
<g clip-path="url(#clip0_952_11019)">
<path d="M21.0001 1.30935C23.4753 -0.119717 26.5249 -0.119717 29.0001 1.30935L43.5167 9.69054C45.9919 11.1196 47.5167 13.7606 47.5167 16.6187V33.3811C47.5167 36.2393 45.9919 38.8803 43.5167 40.3093L29.0001 48.6905C26.5249 50.1196 23.4753 50.1196 21.0001 48.6905L6.4834 40.3093C4.00819 38.8803 2.4834 36.2393 2.4834 33.3811V16.6187C2.4834 13.7606 4.00819 11.1196 6.4834 9.69054L21.0001 1.30935Z" fill="url(#paint0_linear_952_11019)" fill-opacity="0.1" style="mix-blend-mode:lighten"/>
<path d="M21.0001 1.30935C23.4753 -0.119717 26.5249 -0.119717 29.0001 1.30935L43.5167 9.69054C45.9919 11.1196 47.5167 13.7606 47.5167 16.6187V33.3811C47.5167 36.2393 45.9919 38.8803 43.5167 40.3093L29.0001 48.6905C26.5249 50.1196 23.4753 50.1196 21.0001 48.6905L6.4834 40.3093C4.00819 38.8803 2.4834 36.2393 2.4834 33.3811V16.6187C2.4834 13.7606 4.00819 11.1196 6.4834 9.69054L21.0001 1.30935Z" stroke="url(#paint1_linear_952_11019)" stroke-opacity="0.5" stroke-width="0.5"/>
<path d="M26.5001 8.5C22.3713 8.5 19.0001 11.8712 19.0001 16C19.0001 20.1288 22.3713 23.5 26.5001 23.5C30.6289 23.5 34.0001 20.1288 34.0001 16C34.0001 11.8712 30.6289 8.5 26.5001 8.5ZM26.5001 10.75C29.4129 10.75 31.7501 13.0872 31.7501 16C31.7501 18.9128 29.4129 21.25 26.5001 21.25C23.5873 21.25 21.2501 18.9128 21.2501 16C21.2501 13.0872 23.5873 10.75 26.5001 10.75ZM26.4884 11.8896C26.2897 11.8928 26.1004 11.9745 25.962 12.1171C25.8236 12.2596 25.7474 12.4512 25.7501 12.6499V13.0659C24.9614 13.271 24.3746 13.9712 24.3746 14.8105C24.3746 15.8103 25.2011 16.624 26.2174 16.624H26.9058C27.2336 16.624 27.4991 16.8768 27.4991 17.1865C27.4991 17.4963 27.2336 17.749 26.9058 17.749H26.6158C26.5737 17.742 26.5311 17.7386 26.4884 17.7388C26.452 17.7396 26.4158 17.743 26.38 17.749H26.0181C25.6904 17.749 25.4467 17.5828 25.3897 17.519C25.197 17.2393 24.8126 17.1652 24.5284 17.355C24.2411 17.547 24.1643 17.9349 24.3555 18.2222C24.5815 18.5611 25.1168 18.8864 25.7501 18.9663V19.3501C25.7487 19.4495 25.767 19.5482 25.8041 19.6404C25.8412 19.7326 25.8962 19.8165 25.966 19.8873C26.0357 19.9581 26.1189 20.0143 26.2106 20.0527C26.3023 20.091 26.4007 20.1108 26.5001 20.1108C26.5995 20.1108 26.6979 20.091 26.7896 20.0527C26.8813 20.0143 26.9644 19.9581 27.0342 19.8873C27.104 19.8165 27.159 19.7326 27.1961 19.6404C27.2331 19.5482 27.2515 19.4495 27.2501 19.3501V18.9663C28.1026 18.8075 28.7501 18.0707 28.7501 17.1865C28.7501 16.1868 27.9236 15.3745 26.9073 15.3745H26.2188C25.8911 15.3745 25.6241 15.1218 25.6241 14.812C25.6241 14.5023 25.8911 14.2495 26.2188 14.2495H26.3624C26.4501 14.2653 26.5398 14.2653 26.6275 14.2495H26.8751C27.1886 14.2495 27.3378 14.4471 27.3453 14.4561C27.5283 14.7493 27.9149 14.8376 28.2066 14.6538C28.4999 14.4716 28.5874 14.0864 28.4044 13.7939C28.3602 13.7238 27.9978 13.1815 27.2501 13.0366V12.6499C27.2514 12.5496 27.2327 12.45 27.1949 12.357C27.1571 12.2641 27.101 12.1796 27.0299 12.1087C26.9589 12.0378 26.8744 11.9819 26.7814 11.9443C26.6883 11.9067 26.5887 11.8881 26.4884 11.8896ZM38.21 23.5146C37.3699 23.5219 36.572 23.855 35.8634 24.3818C35.1027 24.9469 32.8139 26.656 30.8331 28.1348C30.4035 26.7636 29.1295 25.75 27.6251 25.75H24.3306C22.2222 25.75 21.2392 25.5792 20.3946 25.3999C19.55 25.2206 18.7352 25 17.3697 25C14.4561 25 12.2593 26.8697 10.8204 28.5933C9.38145 30.3168 8.60115 32.0386 8.60115 32.0386C8.53984 32.173 8.50562 32.3183 8.50045 32.466C8.49527 32.6137 8.51924 32.7609 8.57099 32.8994C8.62274 33.0378 8.70125 33.1647 8.80204 33.2728C8.90283 33.3808 9.02393 33.468 9.15841 33.5293C9.2929 33.5906 9.43813 33.6248 9.58583 33.6299C9.73353 33.635 9.88079 33.611 10.0192 33.5592C10.1576 33.5075 10.2845 33.4289 10.3926 33.3281C10.5006 33.2273 10.5878 33.1062 10.649 32.9717C10.649 32.9717 11.3233 31.5024 12.5474 30.0361C13.7716 28.5699 15.445 27.25 17.3697 27.25C18.5107 27.25 19.0051 27.4044 19.9273 27.6001C20.8495 27.7958 22.0928 28 24.3306 28H27.6251C28.2599 28 28.7501 28.4901 28.7501 29.125C28.7501 29.4771 28.5957 29.7807 28.3531 29.9849C28.3529 29.985 28.3223 30.0083 28.3223 30.0083C28.3007 30.0251 28.2797 30.0427 28.2594 30.061C28.2589 30.0615 28.2584 30.062 28.2579 30.0625C28.079 30.1815 27.8624 30.25 27.6251 30.25H22.3751C22.226 30.2479 22.078 30.2754 21.9397 30.331C21.8013 30.3866 21.6754 30.4691 21.5692 30.5738C21.4631 30.6785 21.3788 30.8032 21.3212 30.9408C21.2637 31.0783 21.2341 31.2259 21.2341 31.375C21.2341 31.5241 21.2637 31.6717 21.3212 31.8092C21.3788 31.9468 21.4631 32.0715 21.5692 32.1762C21.6754 32.2809 21.8013 32.3634 21.9397 32.419C22.078 32.4746 22.226 32.5021 22.3751 32.5H27.6251C28.3306 32.5 28.9866 32.2761 29.5308 31.8994C29.5317 31.8988 29.5329 31.8986 29.5338 31.8979C29.5807 31.8724 29.6257 31.8435 29.6685 31.8115C29.6685 31.8115 36.082 27.0223 37.2052 26.188C37.2052 26.1875 37.2052 26.187 37.2052 26.1865C37.6283 25.8719 37.9824 25.7668 38.2305 25.7646C38.4786 25.7625 38.6638 25.8227 38.9205 26.0796C39.3633 26.522 39.3606 27.2013 38.9293 27.6499C34.9129 31.0271 32.3864 33.2777 30.7174 34.5962C29.0275 35.9312 28.3188 36.25 27.6251 36.25C24.886 36.25 21.8506 35.5 18.6251 35.5C16.7501 35.5 15.4322 36.5077 14.7257 37.4497C14.0192 38.3917 13.7838 39.3525 13.7838 39.3525C13.7441 39.4971 13.7337 39.6482 13.7532 39.7969C13.7727 39.9456 13.8217 40.0889 13.8974 40.2183C13.9731 40.3478 14.0739 40.4608 14.1939 40.5508C14.3139 40.6407 14.4507 40.7057 14.5962 40.7421C14.7417 40.7784 14.893 40.7853 15.0412 40.7623C15.1893 40.7393 15.3314 40.6869 15.4591 40.6082C15.5868 40.5295 15.6974 40.4261 15.7845 40.3041C15.8716 40.182 15.9335 40.0438 15.9664 39.8975C15.9664 39.8975 16.106 39.3583 16.5245 38.8003C16.943 38.2423 17.5001 37.75 18.6251 37.75C21.4806 37.75 24.5022 38.5 27.6251 38.5C29.0516 38.5 30.3137 37.7833 32.1119 36.3628C33.8874 34.9602 36.3816 32.7324 40.3736 29.3755C40.4225 29.3411 40.4685 29.3029 40.5113 29.2612C40.5165 29.2561 40.5179 29.2489 40.523 29.2437L40.526 29.2466L40.5655 29.2056C40.6753 29.0912 40.7596 28.9549 40.8131 28.8057C41.7479 27.4913 41.6867 25.6632 40.5113 24.4888C39.8898 23.8667 39.0502 23.5074 38.21 23.5146Z" fill="url(#paint2_linear_952_11019)"/>
</g>
<defs>
<linearGradient id="paint0_linear_952_11019" x1="25" y1="-1.00006" x2="25" y2="50.9999" gradientUnits="userSpaceOnUse">
<stop stop-color="#CFF3FF"/>
<stop offset="1" stop-color="#353535"/>
</linearGradient>
<linearGradient id="paint1_linear_952_11019" x1="25" y1="-1.00006" x2="25" y2="50.9999" gradientUnits="userSpaceOnUse">
<stop stop-color="white"/>
<stop offset="0.6" stop-color="#999999" stop-opacity="0"/>
</linearGradient>
<linearGradient id="paint2_linear_952_11019" x1="8.49976" y1="24.6378" x2="41.4594" y2="24.6378" gradientUnits="userSpaceOnUse">
<stop offset="0.186" stop-color="#2593F9"/>
<stop offset="1" stop-color="#00FFD1"/>
</linearGradient>
<clipPath id="clip0_952_11019">
<rect width="50" height="50" rx="8" fill="white"/>
</clipPath>
</defs>
</svg>
