<svg width="32" height="32" viewBox="0 0 32 32" fill="none" xmlns="http://www.w3.org/2000/svg">
<path d="M24.3333 4H7.66667C5.64467 4 4 5.64533 4 7.66667V24.3333C4 26.3547 5.64467 28 7.66667 28H24.3333C26.3553 28 28 26.3547 28 24.3333V7.66667C28 5.64533 26.3553 4 24.3333 4ZM17 22.3333C17 22.8853 16.5527 23.3333 16 23.3333C15.4473 23.3333 15 22.8853 15 22.3333V15C15 14.448 15.4473 14 16 14C16.5527 14 17 14.448 17 15V22.3333ZM16 12C15.2633 12 14.6667 11.4033 14.6667 10.6667C14.6667 9.93 15.2633 9.33333 16 9.33333C16.7367 9.33333 17.3333 9.93 17.3333 10.6667C17.3333 11.4033 16.7367 12 16 12Z" fill="#2593F9"/>
</svg>
