<svg width="16" height="16" viewBox="0 0 16 16" fill="none" xmlns="http://www.w3.org/2000/svg">
<path d="M14.6673 7.99983C14.6673 7.80816 14.5863 7.62383 14.445 7.49416L13.975 7.04116L14.286 6.49016C14.38 6.32316 14.4003 6.1225 14.341 5.94016C14.2817 5.7575 14.1477 5.60716 13.973 5.5275L13.3863 5.24183L13.5117 4.62183C13.5493 4.43416 13.5067 4.2375 13.394 4.08216C13.2813 3.92683 13.1077 3.82516 12.9163 3.80316L12.27 3.7125L12.1977 3.0835C12.176 2.89316 12.0743 2.71916 11.9193 2.6065C11.7643 2.49383 11.5673 2.45116 11.379 2.4885L10.736 2.60216L10.473 2.02683C10.3933 1.85283 10.243 1.71883 10.061 1.6595C9.87834 1.5995 9.67834 1.62016 9.51067 1.71416L8.93467 2.02083L8.50634 1.55516C8.37667 1.41416 8.19234 1.3335 8.00101 1.3335H8.00001C7.80801 1.33383 7.62301 1.4155 7.49367 1.55683L7.04067 2.02683L6.48967 1.71616C6.32267 1.62183 6.12167 1.6025 5.94001 1.66116C5.75767 1.72016 5.60701 1.8545 5.52734 2.02883L5.24167 2.6155L4.62167 2.4905C4.43367 2.45183 4.23701 2.49516 4.08234 2.60783C3.92701 2.7205 3.82534 2.89416 3.80301 3.0855L3.71267 3.73216L3.08334 3.80416C2.89301 3.82616 2.71901 3.9275 2.60601 4.08283C2.49334 4.23783 2.45034 4.43483 2.48801 4.62316L2.60201 5.26583L2.02701 5.52883C1.85267 5.6085 1.71834 5.7585 1.65901 5.94083C1.60001 6.12316 1.62001 6.32383 1.71434 6.49116L2.02101 7.06716L1.55567 7.49516C1.41401 7.62483 1.33301 7.80916 1.33301 8.00116C1.33301 8.19316 1.41401 8.3775 1.55534 8.5075L2.02534 8.9605L1.71434 9.5115C1.62034 9.6785 1.60001 9.87916 1.65934 10.0615C1.71867 10.2438 1.85267 10.3945 2.02734 10.4738L2.61401 10.7595L2.48834 11.3802C2.45067 11.5678 2.49334 11.7645 2.60601 11.9198C2.71867 12.0752 2.89234 12.1768 3.08434 12.1992L3.73067 12.2882L3.80334 12.9162C3.82467 13.1065 3.92601 13.2805 4.08101 13.3932C4.23701 13.5062 4.43367 13.5495 4.62201 13.5112L5.26501 13.3972L5.52801 13.9728C5.60767 14.1468 5.75801 14.2808 5.94034 14.3402C6.12267 14.3995 6.32301 14.3792 6.49001 14.2852L7.06634 13.9785L7.49434 14.4445C7.62401 14.5858 7.80867 14.6668 8.00034 14.6668H8.00067C8.19234 14.6668 8.37667 14.5855 8.50634 14.4445L8.95934 13.9745L9.51034 14.2852C9.67767 14.3798 9.87834 14.3995 10.06 14.3402C10.2423 14.2812 10.393 14.1468 10.4727 13.9722L10.7583 13.3855L11.3787 13.5108C11.565 13.5485 11.7627 13.5058 11.918 13.3932C12.073 13.2805 12.175 13.1068 12.197 12.9158L12.2873 12.2692L12.916 12.1968C13.1063 12.1748 13.2803 12.0735 13.3933 11.9182C13.5063 11.7628 13.549 11.5662 13.5113 11.3778L13.3973 10.7348L13.9723 10.4718C14.1467 10.3922 14.281 10.2422 14.3403 10.0598C14.4 9.8775 14.3797 9.67716 14.2857 9.5095L13.979 8.93316L14.4447 8.50516C14.5863 8.37616 14.6673 8.1915 14.6673 7.99983Z" fill="#1B9DE2"/>
<path opacity="0.05" d="M7.54593 11.0331C7.28226 11.0331 7.04626 10.8928 6.91459 10.6578C5.72759 8.53309 3.83659 7.54309 3.81759 7.53309L3.70093 7.47309L3.83793 6.90276H3.96926C5.77126 6.90276 6.76293 7.54242 7.47526 8.21309C8.58926 6.43342 10.9456 5.34242 11.9486 5.08642L12.0843 5.05176L12.3346 5.60642L12.2186 5.68509C10.0949 7.12876 8.90993 9.19176 8.20359 10.6181C8.07626 10.8741 7.82459 11.0331 7.54593 11.0331Z" fill="black"/>
<path opacity="0.07" d="M7.54589 10.8664C7.34322 10.8664 7.16189 10.758 7.06022 10.5764C5.84289 8.39671 3.91322 7.39471 3.89355 7.38471L3.96955 7.06971C5.94955 7.06971 6.89422 7.86505 7.51089 8.47971C8.54222 6.64305 10.9466 5.51438 11.9902 5.24805L12.1252 5.54738C9.96889 7.01305 8.76955 9.10105 8.05455 10.544C7.95555 10.7427 7.76089 10.8664 7.54589 10.8664Z" fill="black"/>
<path d="M3.96924 7.23633C3.96924 7.23633 5.94924 8.246 7.20557 10.495C7.36491 10.78 7.75991 10.7633 7.90491 10.47C8.58891 9.089 9.79157 6.932 12.0312 5.40967C10.8369 5.71433 8.44824 6.93233 7.55224 8.759C6.9549 8.14967 6.05924 7.23633 3.96924 7.23633Z" fill="white"/>
</svg>
