<svg width="64" height="66" viewBox="0 0 64 66" fill="none" xmlns="http://www.w3.org/2000/svg">
<g filter="url(#filter0_d_952_11656)">
<path d="M24 14C18.477 14 14 18.477 14 24C14 27.6998 16.0133 30.9227 19 32.6523V47.5C19 47.897 19.1585 48.2785 19.4395 48.5605L22.4395 51.5605C22.7325 51.8535 23.116 52 23.5 52C23.884 52 24.2675 51.8535 24.5605 51.5605L28.5605 47.5605C29.1465 46.9745 29.1465 46.0255 28.5605 45.4395L26.6211 43.5L28.5605 41.5605C29.1465 40.9745 29.1465 40.0255 28.5605 39.4395L26.6211 37.5L28.5605 35.5605C28.8425 35.2785 29 34.897 29 34.5V32.6523C31.9867 30.9227 34 27.6998 34 24C34 18.477 29.523 14 24 14ZM46 16C43.794 16 42 17.794 42 20C42 20.554 42.114 21.0804 42.3184 21.5605L39.8789 24H37.5C37.3012 23.9972 37.1039 24.0339 36.9194 24.108C36.735 24.1822 36.5671 24.2922 36.4255 24.4318C36.284 24.5713 36.1716 24.7376 36.0949 24.921C36.0181 25.1044 35.9786 25.3012 35.9786 25.5C35.9786 25.6988 36.0181 25.8956 36.0949 26.079C36.1716 26.2624 36.284 26.4287 36.4255 26.5682C36.5671 26.7078 36.735 26.8178 36.9194 26.892C37.1039 26.9661 37.3012 27.0028 37.5 27H40.5C40.8978 26.9999 41.2793 26.8419 41.5605 26.5605L44.4395 23.6816C44.9196 23.886 45.446 24 46 24C48.206 24 50 22.206 50 20C50 17.794 48.206 16 46 16ZM24 20C25.105 20 26 20.895 26 22C26 23.105 25.105 24 24 24C22.895 24 22 23.105 22 22C22 20.895 22.895 20 24 20ZM46 29C44.3253 29 42.8921 30.0369 42.2969 31.5H37.5C37.3012 31.4972 37.1039 31.5339 36.9194 31.608C36.735 31.6822 36.5671 31.7922 36.4255 31.9318C36.284 32.0713 36.1716 32.2376 36.0949 32.421C36.0181 32.6044 35.9786 32.8012 35.9786 33C35.9786 33.1988 36.0181 33.3956 36.0949 33.579C36.1716 33.7624 36.284 33.9287 36.4255 34.0682C36.5671 34.2078 36.735 34.3178 36.9194 34.392C37.1039 34.4661 37.3012 34.5028 37.5 34.5H42.2969C42.8921 35.9631 44.3253 37 46 37C48.206 37 50 35.206 50 33C50 30.794 48.206 29 46 29ZM37.5 39C37.3012 38.9972 37.1039 39.0339 36.9194 39.108C36.735 39.1822 36.5671 39.2922 36.4255 39.4318C36.284 39.5713 36.1716 39.7376 36.0949 39.921C36.0181 40.1044 35.9786 40.3012 35.9786 40.5C35.9786 40.6988 36.0181 40.8956 36.0949 41.079C36.1716 41.2624 36.284 41.4287 36.4255 41.5682C36.5671 41.7078 36.735 41.8178 36.9194 41.892C37.1039 41.9661 37.3012 42.0028 37.5 42H39.8789L42.3184 44.4395C42.114 44.9196 42 45.446 42 46C42 48.206 43.794 50 46 50C48.206 50 50 48.206 50 46C50 43.794 48.206 42 46 42C45.446 42 44.9196 42.114 44.4395 42.3184L41.5605 39.4395C41.2793 39.1581 40.8978 39.0001 40.5 39H37.5Z" fill="white"/>
</g>
<defs>
<filter id="filter0_d_952_11656" x="-5.6" y="-4.6" width="75.2" height="75.2" filterUnits="userSpaceOnUse" color-interpolation-filters="sRGB">
<feFlood flood-opacity="0" result="BackgroundImageFix"/>
<feColorMatrix in="SourceAlpha" type="matrix" values="0 0 0 0 0 0 0 0 0 0 0 0 0 0 0 0 0 0 127 0" result="hardAlpha"/>
<feOffset/>
<feGaussianBlur stdDeviation="6.8"/>
<feComposite in2="hardAlpha" operator="out"/>
<feColorMatrix type="matrix" values="0 0 0 0 1 0 0 0 0 1 0 0 0 0 1 0 0 0 0.6 0"/>
<feBlend mode="normal" in2="BackgroundImageFix" result="effect1_dropShadow_952_11656"/>
<feBlend mode="normal" in="SourceGraphic" in2="effect1_dropShadow_952_11656" result="shape"/>
</filter>
</defs>
</svg>
