<svg width="24" height="24" viewBox="0 0 24 24" fill="none" xmlns="http://www.w3.org/2000/svg">
<path d="M7.98935 2.99023C7.7905 2.99048 7.59623 3.05 7.43137 3.16119C7.26652 3.27238 7.13854 3.43019 7.06381 3.61446C6.98907 3.79873 6.97097 4.0011 7.0118 4.19571C7.05263 4.39032 7.15056 4.56834 7.29306 4.70703L14.586 12L7.29306 19.293C7.19708 19.3851 7.12046 19.4955 7.06767 19.6176C7.01489 19.7397 6.987 19.8712 6.98565 20.0042C6.98429 20.1373 7.0095 20.2692 7.05979 20.3924C7.11008 20.5156 7.18444 20.6275 7.27852 20.7216C7.3726 20.8157 7.4845 20.89 7.60768 20.9403C7.73086 20.9906 7.86283 21.0158 7.99587 21.0144C8.12891 21.0131 8.26035 20.9852 8.38248 20.9324C8.50461 20.8796 8.61498 20.803 8.70712 20.707L16.7071 12.707C16.8946 12.5195 16.9999 12.2652 16.9999 12C16.9999 11.7348 16.8946 11.4805 16.7071 11.293L8.70712 3.29297C8.61382 3.19706 8.50221 3.12084 8.37892 3.06884C8.25563 3.01684 8.12316 2.99011 7.98935 2.99023Z" fill="white"/>
</svg>
