<svg width="28" height="28" viewBox="0 0 28 28" fill="none" xmlns="http://www.w3.org/2000/svg">
<path d="M4.62499 0.49999C2.36016 0.49999 0.499994 2.36016 0.499994 4.62499V6.87499C0.497886 7.02407 0.525427 7.17207 0.581017 7.31041C0.636608 7.44875 0.719139 7.57466 0.823814 7.68083C0.928489 7.787 1.05322 7.8713 1.19076 7.92884C1.3283 7.98638 1.4759 8.01601 1.62499 8.01601C1.77408 8.01601 1.92169 7.98638 2.05923 7.92884C2.19677 7.8713 2.3215 7.787 2.42617 7.68083C2.53085 7.57466 2.61338 7.44875 2.66897 7.31041C2.72456 7.17207 2.7521 7.02407 2.74999 6.87499V4.62499C2.74999 3.57632 3.57632 2.74999 4.62499 2.74999H6.87499C7.02407 2.7521 7.17208 2.72456 7.31042 2.66897C7.44876 2.61338 7.57467 2.53085 7.68083 2.42617C7.787 2.3215 7.8713 2.19676 7.92884 2.05922C7.98638 1.92168 8.01602 1.77408 8.01602 1.62499C8.01602 1.4759 7.98638 1.3283 7.92884 1.19076C7.8713 1.05322 7.787 0.928485 7.68083 0.82381C7.57467 0.719135 7.44876 0.636604 7.31042 0.581014C7.17208 0.525423 7.02407 0.497882 6.87499 0.49999H4.62499ZM21.125 0.49999C20.9759 0.497882 20.8279 0.525423 20.6896 0.581014C20.5512 0.636604 20.4253 0.719135 20.3192 0.82381C20.213 0.928485 20.1287 1.05322 20.0711 1.19076C20.0136 1.3283 19.984 1.4759 19.984 1.62499C19.984 1.77408 20.0136 1.92168 20.0711 2.05922C20.1287 2.19676 20.213 2.3215 20.3192 2.42617C20.4253 2.53085 20.5512 2.61338 20.6896 2.66897C20.8279 2.72456 20.9759 2.7521 21.125 2.74999H23.375C24.4237 2.74999 25.25 3.57632 25.25 4.62499V6.87499C25.2479 7.02407 25.2754 7.17207 25.331 7.31041C25.3866 7.44875 25.4691 7.57466 25.5738 7.68083C25.6785 7.787 25.8032 7.8713 25.9408 7.92884C26.0783 7.98638 26.2259 8.01601 26.375 8.01601C26.5241 8.01601 26.6717 7.98638 26.8092 7.92884C26.9468 7.8713 27.0715 7.787 27.1762 7.68083C27.2809 7.57466 27.3634 7.44875 27.419 7.31041C27.4746 7.17207 27.5021 7.02407 27.5 6.87499V4.62499C27.5 2.36016 25.6398 0.49999 23.375 0.49999H21.125ZM1.60742 19.9839C1.3093 19.9885 1.02523 20.1113 0.817586 20.3253C0.609945 20.5392 0.495717 20.8269 0.499994 21.125V23.375C0.499994 25.6398 2.36016 27.5 4.62499 27.5H6.87499C7.02407 27.5021 7.17208 27.4746 7.31042 27.419C7.44876 27.3634 7.57467 27.2808 7.68083 27.1762C7.787 27.0715 7.8713 26.9468 7.92884 26.8092C7.98638 26.6717 8.01602 26.5241 8.01602 26.375C8.01602 26.2259 7.98638 26.0783 7.92884 25.9408C7.8713 25.8032 7.787 25.6785 7.68083 25.5738C7.57467 25.4691 7.44876 25.3866 7.31042 25.331C7.17208 25.2754 7.02407 25.2479 6.87499 25.25H4.62499C3.57632 25.25 2.74999 24.4237 2.74999 23.375V21.125C2.75215 20.9744 2.72406 20.8249 2.66739 20.6854C2.61072 20.5459 2.52661 20.4192 2.42006 20.3128C2.31351 20.2064 2.18668 20.1224 2.04709 20.0659C1.9075 20.0094 1.75799 19.9815 1.60742 19.9839ZM26.3574 19.9839C26.0593 19.9885 25.7752 20.1113 25.5676 20.3253C25.3599 20.5392 25.2457 20.8269 25.25 21.125V23.375C25.25 24.4237 24.4237 25.25 23.375 25.25H21.125C20.9759 25.2479 20.8279 25.2754 20.6896 25.331C20.5512 25.3866 20.4253 25.4691 20.3192 25.5738C20.213 25.6785 20.1287 25.8032 20.0711 25.9408C20.0136 26.0783 19.984 26.2259 19.984 26.375C19.984 26.5241 20.0136 26.6717 20.0711 26.8092C20.1287 26.9468 20.213 27.0715 20.3192 27.1762C20.4253 27.2808 20.5512 27.3634 20.6896 27.419C20.8279 27.4746 20.9759 27.5021 21.125 27.5H23.375C25.6398 27.5 27.5 25.6398 27.5 23.375V21.125C27.5022 20.9744 27.4741 20.8249 27.4174 20.6854C27.3607 20.5459 27.2766 20.4192 27.1701 20.3128C27.0635 20.2064 26.9367 20.1224 26.7971 20.0659C26.6575 20.0094 26.508 19.9815 26.3574 19.9839Z" fill="url(#paint0_linear_501_749)"/>
<path d="M12.0995 4.24997C7.77399 4.24997 4.25006 7.7739 4.25006 12.0994C4.25006 16.4249 7.77399 19.9488 12.0995 19.9488C13.9706 19.9488 15.6906 19.2879 17.0413 18.1895L22.3522 23.5003C22.427 23.5783 22.5166 23.6405 22.6158 23.6833C22.715 23.7262 22.8217 23.7488 22.9297 23.7499C23.0377 23.751 23.1449 23.7306 23.2449 23.6897C23.3449 23.6489 23.4358 23.5885 23.5122 23.5121C23.5886 23.4357 23.649 23.3449 23.6898 23.2448C23.7306 23.1448 23.7511 23.0377 23.75 22.9296C23.7489 22.8216 23.7263 22.7149 23.6834 22.6157C23.6406 22.5165 23.5783 22.4269 23.5004 22.3521L18.1896 17.0412C19.288 15.6905 19.9489 13.9705 19.9489 12.0994C19.9489 7.7739 16.425 4.24997 12.0995 4.24997ZM12.0995 5.87399C15.5473 5.87399 18.3249 8.65158 18.3249 12.0994C18.3249 13.779 17.6624 15.2964 16.5878 16.4143C16.5215 16.463 16.463 16.5214 16.4144 16.5877C15.2965 17.6623 13.7791 18.3248 12.0995 18.3248C8.65167 18.3248 5.87408 15.5472 5.87408 12.0994C5.87408 8.65158 8.65167 5.87399 12.0995 5.87399Z" fill="url(#paint1_linear_501_749)"/>
<defs>
<linearGradient id="paint0_linear_501_749" x1="0.499878" y1="14" x2="27.5001" y2="14" gradientUnits="userSpaceOnUse">
<stop offset="0.186" stop-color="#2593F9"/>
<stop offset="1" stop-color="#00FFD1"/>
</linearGradient>
<linearGradient id="paint1_linear_501_749" x1="0.499878" y1="14" x2="27.5001" y2="14" gradientUnits="userSpaceOnUse">
<stop offset="0.186" stop-color="#2593F9"/>
<stop offset="1" stop-color="#00FFD1"/>
</linearGradient>
</defs>
</svg>
