<svg width="14" height="14" viewBox="0 0 14 14" fill="none" xmlns="http://www.w3.org/2000/svg">
<path d="M13.6673 6.99983C13.6673 6.80816 13.5863 6.62383 13.445 6.49416L12.975 6.04116L13.286 5.49016C13.38 5.32316 13.4003 5.1225 13.341 4.94016C13.2817 4.7575 13.1477 4.60716 12.973 4.5275L12.3863 4.24183L12.5117 3.62183C12.5493 3.43416 12.5067 3.2375 12.394 3.08216C12.2813 2.92683 12.1077 2.82516 11.9163 2.80316L11.27 2.7125L11.1977 2.0835C11.176 1.89316 11.0743 1.71916 10.9193 1.6065C10.7643 1.49383 10.5673 1.45116 10.379 1.4885L9.73601 1.60216L9.47301 1.02683C9.39334 0.852829 9.24301 0.718829 9.06101 0.659496C8.87834 0.599496 8.67834 0.620163 8.51067 0.714163L7.93467 1.02083L7.50634 0.555163C7.37667 0.414163 7.19234 0.333496 7.00101 0.333496H7.00001C6.80801 0.333829 6.62301 0.415496 6.49367 0.556829L6.04067 1.02683L5.48967 0.716163C5.32267 0.621829 5.12167 0.602496 4.94001 0.661163C4.75767 0.720163 4.60701 0.854496 4.52734 1.02883L4.24167 1.6155L3.62167 1.4905C3.43367 1.45183 3.23701 1.49516 3.08234 1.60783C2.92701 1.7205 2.82534 1.89416 2.80301 2.0855L2.71267 2.73216L2.08334 2.80416C1.89301 2.82616 1.71901 2.9275 1.60601 3.08283C1.49334 3.23783 1.45034 3.43483 1.48801 3.62316L1.60201 4.26583L1.02701 4.52883C0.852674 4.6085 0.718341 4.7585 0.659008 4.94083C0.600008 5.12316 0.620008 5.32383 0.714341 5.49116L1.02101 6.06716L0.555674 6.49516C0.414008 6.62483 0.333008 6.80916 0.333008 7.00116C0.333008 7.19316 0.414008 7.3775 0.555341 7.5075L1.02534 7.9605L0.714341 8.5115C0.620341 8.6785 0.600008 8.87916 0.659341 9.0615C0.718674 9.24383 0.852674 9.3945 1.02734 9.47383L1.61401 9.7595L1.48834 10.3802C1.45067 10.5678 1.49334 10.7645 1.60601 10.9198C1.71867 11.0752 1.89234 11.1768 2.08434 11.1992L2.73067 11.2882L2.80334 11.9162C2.82467 12.1065 2.92601 12.2805 3.08101 12.3932C3.23701 12.5062 3.43367 12.5495 3.62201 12.5112L4.26501 12.3972L4.52801 12.9728C4.60767 13.1468 4.75801 13.2808 4.94034 13.3402C5.12267 13.3995 5.32301 13.3792 5.49001 13.2852L6.06634 12.9785L6.49434 13.4445C6.62401 13.5858 6.80867 13.6668 7.00034 13.6668H7.00067C7.19234 13.6668 7.37667 13.5855 7.50634 13.4445L7.95934 12.9745L8.51034 13.2852C8.67767 13.3798 8.87834 13.3995 9.06001 13.3402C9.24234 13.2812 9.39301 13.1468 9.47267 12.9722L9.75834 12.3855L10.3787 12.5108C10.565 12.5485 10.7627 12.5058 10.918 12.3932C11.073 12.2805 11.175 12.1068 11.197 11.9158L11.2873 11.2692L11.916 11.1968C12.1063 11.1748 12.2803 11.0735 12.3933 10.9182C12.5063 10.7628 12.549 10.5662 12.5113 10.3778L12.3973 9.73483L12.9723 9.47183C13.1467 9.39216 13.281 9.24216 13.3403 9.05983C13.4 8.8775 13.3797 8.67716 13.2857 8.5095L12.979 7.93316L13.4447 7.50516C13.5863 7.37616 13.6673 7.1915 13.6673 6.99983Z" fill="#1B9DE2"/>
</svg>
