<svg width="64" height="64" viewBox="0 0 64 64" fill="none" xmlns="http://www.w3.org/2000/svg">
<g filter="url(#filter0_d_952_11612)">
<path d="M18.5 14.0002C16.0325 14.0002 14 16.0326 14 18.5002V45.5002C14 47.9851 16.015 50.0001 18.5 50.0001H45.5C47.985 50.0001 50 47.9851 50 45.5002V24.5001C50 22.0152 47.985 20.0002 45.5 20.0002H18.5C17.672 20.0002 17 19.3282 17 18.5002C17 17.6537 17.6535 17.0001 18.5 17.0001H43.5C43.6988 17.003 43.8961 16.9662 44.0806 16.8921C44.265 16.818 44.4329 16.708 44.5745 16.5684C44.716 16.4288 44.8284 16.2625 44.9051 16.0791C44.9819 15.8957 45.0214 15.6989 45.0214 15.5001C45.0214 15.3014 44.9819 15.1046 44.9051 14.9212C44.8284 14.7378 44.716 14.5715 44.5745 14.4319C44.4329 14.2923 44.265 14.1823 44.0806 14.1082C43.8961 14.0341 43.6988 13.9973 43.5 14.0002H18.5ZM41.5 32.0002C42.881 32.0002 44 33.1192 44 34.5002C44 35.8812 42.881 37.0002 41.5 37.0002C40.119 37.0002 39 35.8812 39 34.5002C39 33.1192 40.119 32.0002 41.5 32.0002Z" fill="white"/>
</g>
<defs>
<filter id="filter0_d_952_11612" x="-5.6" y="-5.6" width="75.2" height="75.2" filterUnits="userSpaceOnUse" color-interpolation-filters="sRGB">
<feFlood flood-opacity="0" result="BackgroundImageFix"/>
<feColorMatrix in="SourceAlpha" type="matrix" values="0 0 0 0 0 0 0 0 0 0 0 0 0 0 0 0 0 0 127 0" result="hardAlpha"/>
<feOffset/>
<feGaussianBlur stdDeviation="6.8"/>
<feComposite in2="hardAlpha" operator="out"/>
<feColorMatrix type="matrix" values="0 0 0 0 1 0 0 0 0 1 0 0 0 0 1 0 0 0 0.6 0"/>
<feBlend mode="normal" in2="BackgroundImageFix" result="effect1_dropShadow_952_11612"/>
<feBlend mode="normal" in="SourceGraphic" in2="effect1_dropShadow_952_11612" result="shape"/>
</filter>
</defs>
</svg>
